<?xml version="1.0"?>
<svg id="Layer_2" xmlns="http://www.w3.org/2000/svg" viewBox="0 0 52 80" width="52" height="80"><defs><style>.cls-1,.cls-2{fill:none;}.cls-3{fill:#231f20;}.cls-2{stroke:#231f20;stroke-miterlimit:10;stroke-width:.32px;}</style></defs><g id="Layer_1-2"><g><rect class="cls-1" width="52" height="80"></rect><g><path class="cls-3" d="M17.36,70.84c0,.51-.35,.88-.83,.88s-.82-.37-.82-.88,.35-.86,.82-.86,.83,.35,.83,.86Z"></path><path class="cls-3" d="M21.57,66.25c1.94,0,3.19,1.07,3.19,2.56,0,1.74-1.29,2.87-3.31,2.87-1.06,0-2.31-.4-3.17-1l.65-1.3c.7,.6,1.54,.93,2.34,.93,1.1,0,1.75-.52,1.75-1.39,0-.8-.65-1.28-1.73-1.28-.52,0-1.75,.04-2.34,.1v-4.57h5.44v1.42h-3.95v1.67h1.12Z"></path><path class="cls-3" d="M32.29,67.38c0,2.75-1.15,4.28-3.21,4.28s-3.22-1.53-3.22-4.28,1.15-4.27,3.22-4.27,3.21,1.52,3.21,4.27Zm-4.84,0c0,2.09,.53,3.04,1.63,3.04s1.62-.95,1.62-3.04-.53-3.03-1.62-3.03-1.63,.94-1.63,3.03Z"></path></g><g><circle class="cls-2" cx="25.02" cy="40.08" r="11.28"></circle><rect class="cls-2" x="18.83" y="33.89" width="12.38" height="12.38"></rect><polygon class="cls-2" points="33.55 39.91 24.88 48.56 16.13 39.8 24.98 31.24 33.55 39.91"></polygon><polygon class="cls-2" points="20.65 29.69 25.09 31.34 29.52 29.9 31.21 33.89 35.1 35.47 33.55 39.8 35.51 43.93 31.21 46.27 29.52 50.23 24.88 48.56 20.75 50.33 18.83 46.27 14.87 44.55 16.13 39.8 14.98 35.16 18.83 33.89 20.65 29.69"></polygon><line class="cls-2" x1="25.02" y1="28.8" x2="25.02" y2="31.05"></line><line class="cls-2" x1="16.13" y1="39.8" x2="13.74" y2="39.8"></line><line class="cls-2" x1="17.04" y1="32.27" x2="18.83" y2="33.89"></line><line class="cls-2" x1="33.14" y1="32.17" x2="31.21" y2="33.89"></line><line class="cls-2" x1="31.21" y1="46.27" x2="33.03" y2="48.27"></line><line class="cls-2" x1="18.83" y1="46.27" x2="17.04" y2="47.75"></line></g></g></g></svg>