<?xml version="1.0"?>
<svg id="Layer_2" xmlns="http://www.w3.org/2000/svg" viewBox="0 0 60 80" width="60" height="80"><defs><style>.cls-1,.cls-2{fill:none;}.cls-3{fill:#231f20;}.cls-2{stroke:#231f20;stroke-miterlimit:10;stroke-width:.43px;}</style></defs><g id="Layer_1-2"><g><rect class="cls-1" width="60" height="80"></rect><g><path class="cls-3" d="M23.14,63.16v8.46h-1.63v-7.04h-1.76v-1.42h3.39Z"></path><path class="cls-3" d="M28.14,70.84c0,.51-.35,.88-.83,.88s-.82-.37-.82-.88,.35-.86,.82-.86,.83,.35,.83,.86Z"></path><path class="cls-3" d="M32.34,66.25c1.94,0,3.19,1.07,3.19,2.56,0,1.74-1.29,2.87-3.31,2.87-1.06,0-2.31-.4-3.17-1l.65-1.3c.7,.6,1.54,.93,2.34,.93,1.1,0,1.75-.52,1.75-1.39,0-.8-.65-1.28-1.73-1.28-.52,0-1.75,.04-2.34,.1v-4.57h5.44v1.42h-3.95v1.67h1.12Z"></path><path class="cls-3" d="M43.06,67.38c0,2.75-1.15,4.28-3.21,4.28s-3.22-1.53-3.22-4.28,1.15-4.27,3.22-4.27,3.21,1.52,3.21,4.27Zm-4.84,0c0,2.09,.53,3.04,1.63,3.04s1.62-.95,1.62-3.04-.53-3.03-1.62-3.03-1.63,.94-1.63,3.03Z"></path></g><g><circle class="cls-2" cx="30.61" cy="35.72" r="15.34"></circle><rect class="cls-2" x="22.19" y="27.3" width="16.84" height="16.84"></rect><polygon class="cls-2" points="42.22 35.49 30.43 47.26 18.52 35.35 30.57 23.7 42.22 35.49"></polygon><polygon class="cls-2" points="24.67 21.59 30.71 23.84 36.74 21.87 39.03 27.3 44.32 29.45 42.22 35.35 44.88 40.96 39.03 44.14 36.74 49.52 30.43 47.26 24.81 49.66 22.19 44.14 16.81 41.8 18.52 35.35 16.95 29.03 22.19 27.3 24.67 21.59"></polygon><line class="cls-2" x1="30.61" y1="20.38" x2="30.61" y2="23.44"></line><line class="cls-2" x1="18.52" y1="35.35" x2="15.27" y2="35.35"></line><line class="cls-2" x1="19.76" y1="25.1" x2="22.19" y2="27.3"></line><line class="cls-2" x1="41.65" y1="24.96" x2="39.03" y2="27.3"></line><line class="cls-2" x1="39.03" y1="44.14" x2="41.51" y2="46.86"></line><line class="cls-2" x1="22.19" y1="44.14" x2="19.76" y2="46.16"></line></g></g></g></svg>