<?xml version="1.0"?>
<svg id="Layer_1" xmlns="http://www.w3.org/2000/svg" viewBox="0 0 788 109.04" width="788" height="109.04"><defs><style>.cls-1,.cls-2,.cls-3,.cls-4{fill:none;}.cls-5{fill:#fff;}.cls-6{fill:#daceca;}.cls-7{fill:#29463c;}.cls-2{stroke-width:.96px;}.cls-2,.cls-3,.cls-4{stroke:#fff;stroke-miterlimit:10;}.cls-3{stroke-width:.92px;}.cls-4{stroke-width:.94px;}</style></defs><rect class="cls-1" width="788" height="99.96"></rect><g><rect class="cls-7" x="50.65" y="2.35" width="531.33" height="96.98"></rect><line class="cls-2" x1="73.12" y1=".76" x2="73.12" y2="100"></line><line class="cls-4" x1="112.92" y1=".76" x2="112.79" y2="98.63"></line><line class="cls-4" x1="152.72" y1="2.55" x2="152.72" y2="27.2"></line><line class="cls-4" x1="272.12" y1="2.55" x2="272.12" y2="27.2"></line><line class="cls-4" x1="423.73" y1="2.55" x2="423.73" y2="26.69"></line><line class="cls-4" x1="502.38" y1="2.55" x2="502.38" y2="26.69"></line><line class="cls-4" x1="202" y1=".76" x2="201.86" y2="98.63"></line><line class="cls-4" x1="345.08" y1=".76" x2="344.95" y2="98.63"></line><g><path class="cls-5" d="M118.74,12.41h.77l3.63,7.7,3.65-7.7h.73l-4.08,8.43h-.61l-4.08-8.43Z"></path><path class="cls-5" d="M128.88,19.56l.45-.47c1.02,.85,1.96,1.24,3.33,1.24s2.35-.71,2.35-1.66v-.02c0-.89-.52-1.4-2.63-1.78-2.23-.41-3.13-1.09-3.13-2.36v-.02c0-1.24,1.26-2.2,2.98-2.2,1.35,0,2.24,.33,3.18,1.02l-.44,.49c-.88-.68-1.75-.95-2.77-.95-1.37,0-2.27,.71-2.27,1.58v.02c0,.88,.5,1.42,2.71,1.83,2.15,.39,3.05,1.09,3.05,2.31v.02c0,1.35-1.29,2.28-3.08,2.28-1.48,0-2.63-.44-3.74-1.34Z"></path><path class="cls-5" d="M137.96,18.48l-1.04,.32-.11-.29,1.24-.41h.31v4.92h-.39v-4.54Z"></path></g><g><path class="cls-5" d="M167.66,12.41h.77l3.63,7.7,3.65-7.7h.73l-4.08,8.43h-.61l-4.08-8.43Z"></path><path class="cls-5" d="M177.8,19.56l.45-.47c1.02,.85,1.96,1.24,3.33,1.24s2.35-.71,2.35-1.66v-.02c0-.89-.52-1.4-2.63-1.78-2.23-.41-3.13-1.09-3.13-2.36v-.02c0-1.24,1.26-2.2,2.98-2.2,1.35,0,2.24,.33,3.18,1.02l-.44,.49c-.88-.68-1.75-.95-2.77-.95-1.37,0-2.27,.71-2.27,1.58v.02c0,.88,.5,1.42,2.71,1.83,2.15,.39,3.05,1.09,3.05,2.31v.02c0,1.35-1.29,2.28-3.08,2.28-1.48,0-2.63-.44-3.74-1.34Z"></path><path class="cls-5" d="M185.87,22.75l2.02-1.65c.89-.73,1.2-1.15,1.2-1.67,0-.63-.57-1.05-1.22-1.05-.69,0-1.14,.32-1.58,.91l-.3-.18c.47-.65,.97-1.05,1.92-1.05s1.61,.58,1.61,1.34h0c0,.68-.4,1.13-1.35,1.91l-1.65,1.35h3.06v.35h-3.69v-.27Z"></path></g><g><path class="cls-5" d="M233.34,19.56l.45-.47c1.02,.85,1.96,1.24,3.33,1.24s2.35-.71,2.35-1.66v-.02c0-.89-.52-1.4-2.63-1.78-2.23-.41-3.13-1.09-3.13-2.36v-.02c0-1.24,1.26-2.2,2.98-2.2,1.35,0,2.24,.33,3.18,1.02l-.44,.49c-.88-.68-1.75-.95-2.77-.95-1.37,0-2.27,.71-2.27,1.58v.02c0,.88,.5,1.42,2.71,1.83,2.15,.39,3.05,1.09,3.05,2.31v.02c0,1.35-1.29,2.28-3.08,2.28-1.48,0-2.63-.44-3.74-1.34Z"></path><path class="cls-5" d="M242.51,12.41h.69v8.37h-.69V12.41Z"></path><path class="cls-5" d="M246.06,18.48l-1.04,.32-.11-.29,1.24-.41h.31v4.92h-.39v-4.54Z"></path></g><g><path class="cls-5" d="M301.55,19.56l.45-.47c1.02,.85,1.96,1.24,3.33,1.24s2.35-.71,2.35-1.66v-.02c0-.89-.52-1.4-2.63-1.78-2.23-.41-3.13-1.09-3.13-2.36v-.02c0-1.24,1.26-2.2,2.98-2.2,1.35,0,2.24,.33,3.18,1.02l-.44,.49c-.88-.68-1.75-.95-2.77-.95-1.37,0-2.27,.71-2.27,1.58v.02c0,.88,.5,1.42,2.71,1.83,2.15,.39,3.05,1.09,3.05,2.31v.02c0,1.35-1.29,2.28-3.08,2.28-1.48,0-2.63-.44-3.74-1.34Z"></path><path class="cls-5" d="M310.72,12.41h.69v8.37h-.69V12.41Z"></path><path class="cls-5" d="M313.25,22.75l2.02-1.65c.89-.73,1.2-1.15,1.2-1.67,0-.63-.57-1.05-1.22-1.05-.69,0-1.14,.32-1.58,.91l-.3-.18c.47-.65,.97-1.05,1.92-1.05s1.61,.58,1.61,1.34h0c0,.68-.4,1.13-1.35,1.91l-1.65,1.35h3.06v.35h-3.69v-.27Z"></path></g><g><path class="cls-5" d="M380.67,12.41h.69v8.37h-.69V12.41Z"></path><path class="cls-5" d="M384.21,18.48l-1.04,.32-.11-.29,1.24-.41h.31v4.92h-.39v-4.54Z"></path></g><g><path class="cls-5" d="M458.65,12.41h.69v8.37h-.69V12.41Z"></path><path class="cls-5" d="M461.18,22.75l2.02-1.65c.89-.73,1.2-1.15,1.2-1.67,0-.63-.57-1.05-1.22-1.05-.69,0-1.14,.32-1.58,.91l-.3-.18c.47-.65,.97-1.05,1.92-1.05s1.61,.58,1.61,1.34h0c0,.68-.4,1.13-1.35,1.91l-1.65,1.35h3.06v.35h-3.69v-.27Z"></path></g><g><path class="cls-5" d="M541.75,12.41h.69v8.37h-.69V12.41Z"></path><path class="cls-5" d="M544.33,22.23l.31-.23c.43,.5,.97,.78,1.68,.78s1.34-.44,1.34-1.08h0c0-.7-.71-1.07-1.68-1.07h-.29l-.1-.2,1.86-1.94h-2.83v-.34h3.38v.26l-1.83,1.89c1.03,.06,1.92,.49,1.92,1.38h0c0,.86-.83,1.44-1.76,1.44-.88,0-1.54-.36-1.98-.88Z"></path></g><line class="cls-3" x1="73.12" y1="28.06" x2="581.03" y2="28.06"></line><g><path class="cls-6" d="M80.27,12.41h.77l3.63,7.7,3.65-7.7h.73l-4.08,8.43h-.61l-4.08-8.43Z"></path><path class="cls-6" d="M90.21,12.41h.77l3.63,7.7,3.65-7.7h.73l-4.08,8.43h-.61l-4.08-8.43Z"></path><path class="cls-6" d="M100.35,19.56l.45-.47c1.02,.85,1.96,1.24,3.33,1.24s2.35-.71,2.35-1.66v-.02c0-.89-.52-1.4-2.63-1.78-2.23-.41-3.13-1.09-3.13-2.36v-.02c0-1.24,1.26-2.2,2.98-2.2,1.35,0,2.24,.33,3.18,1.02l-.44,.49c-.88-.68-1.75-.95-2.77-.95-1.37,0-2.27,.71-2.27,1.58v.02c0,.88,.5,1.42,2.71,1.83,2.15,.39,3.05,1.09,3.05,2.31v.02c0,1.35-1.29,2.28-3.08,2.28-1.48,0-2.63-.44-3.74-1.34Z"></path></g><g><path class="cls-5" d="M58.02,90.99v-5.06h.55v4.52h3.26v-4.06h.55v4.06h3.6v.53h-7.96Z"></path><path class="cls-5" d="M58.02,84.26v-.53h7.41v-4.21h.55v4.75h-7.96Z"></path><path class="cls-5" d="M66.91,78.48c-.25-.44-.5-.6-.93-.57v.28h-.97v-.68h.84c.7,0,1.08,.24,1.34,.85l-.28,.12Z"></path><path class="cls-5" d="M58.02,72.45v-.53h7.96v.53h-7.96Z"></path><path class="cls-5" d="M58.02,69.71v-5.06h.55v4.52h3.26v-4.06h.55v4.06h3.6v.53h-7.96Z"></path><path class="cls-5" d="M62.28,60.25v-2.75h.64v2.75h-.64Z"></path><path class="cls-5" d="M58.02,52.63v-5.06h.55v4.52h3.26v-4.06h.55v4.06h3.6v.53h-7.96Z"></path><path class="cls-5" d="M57.68,45.94v-.5h8.3v.5h-8.3Z"></path><path class="cls-5" d="M64.29,43.89h-.02c-1.21,0-1.89-.93-1.89-2.29,0-.73,.1-1.23,.25-1.73h-.25c-1.17,0-1.77,.65-1.77,1.72,0,.64,.19,1.16,.47,1.64l-.49,.18c-.3-.57-.5-1.14-.5-1.86s.22-1.27,.64-1.65c.39-.35,.92-.53,1.64-.53h3.61v.49h-.97c.56,.36,1.1,1,1.1,2s-.61,2.02-1.82,2.02Zm-.49-4.03h-.66c-.12,.44-.26,1.03-.26,1.77,0,1.11,.55,1.72,1.35,1.72h.02c.84,0,1.33-.72,1.33-1.52,0-1.07-.73-1.98-1.78-1.98Z"></path><path class="cls-5" d="M60.18,38.02v-.56l5.09-1.58-5.12-1.58v-.4l5.12-1.58-5.09-1.58v-.54l5.84,1.92v.43l-4.97,1.56,4.97,1.57v.43l-5.84,1.92Z"></path><path class="cls-5" d="M57.68,28.67v-.5h8.3v.5h-8.3Z"></path><path class="cls-5" d="M63.09,26.54h-.02c-1.68,0-3.02-1.07-3.02-2.48s1.32-2.4,3.04-2.4c.1,0,.14,0,.23,.01v4.34c1.44-.09,2.28-1.03,2.28-2.05,0-.81-.4-1.36-.91-1.79l.34-.35c.64,.53,1.09,1.16,1.09,2.16,0,1.37-1.22,2.56-3.02,2.56Zm-.28-4.34c-1.17,.07-2.25,.68-2.25,1.88,0,1.04,.97,1.84,2.25,1.93v-3.8Z"></path><path class="cls-5" d="M65.25,20.64l-.44-.3c.49-.57,.76-1.21,.76-1.88,0-.71-.43-1.26-1.1-1.26h-.02c-.68,0-.93,.66-1.16,1.38-.27,.85-.56,1.79-1.59,1.79h-.02c-.93,0-1.6-.71-1.6-1.72,0-.63,.25-1.33,.64-1.86l.47,.27c-.35,.48-.58,1.06-.58,1.61,0,.72,.43,1.19,1.01,1.19h.02c.65,0,.89-.71,1.13-1.46,.26-.84,.6-1.72,1.63-1.72h.02c1.03,0,1.69,.8,1.69,1.8,0,.76-.34,1.59-.84,2.14Z"></path><path class="cls-5" d="M65.25,15.54l-.44-.3c.49-.57,.76-1.21,.76-1.88,0-.71-.43-1.26-1.1-1.26h-.02c-.68,0-.93,.66-1.16,1.38-.27,.85-.56,1.79-1.59,1.79h-.02c-.93,0-1.6-.71-1.6-1.72,0-.63,.25-1.33,.64-1.86l.47,.27c-.35,.48-.58,1.06-.58,1.61,0,.72,.43,1.19,1.01,1.19h.02c.65,0,.89-.71,1.13-1.46,.26-.84,.6-1.72,1.63-1.72h.02c1.03,0,1.69,.8,1.69,1.8,0,.76-.34,1.59-.84,2.14Z"></path></g><g><path class="cls-5" d="M86.17,93.47v-.42l3.71-1.42-3.71-1.43v-.4l4.19,1.68v.31l-4.19,1.68Z"></path><path class="cls-5" d="M88.26,89.06h-.02c-1.21,0-2.17-.76-2.17-1.78s.95-1.72,2.18-1.72c.07,0,.1,0,.16,0v3.11c1.04-.07,1.64-.74,1.64-1.47,0-.58-.29-.98-.65-1.29l.24-.25c.46,.38,.78,.83,.78,1.55,0,.99-.87,1.84-2.17,1.84Zm-.2-3.11c-.84,.05-1.61,.49-1.61,1.35,0,.74,.69,1.32,1.61,1.38v-2.73Z"></path><path class="cls-5" d="M86.17,84.5v-.36h1.18c-.74-.29-1.28-.92-1.25-1.66h.44v.04c0,.87,.73,1.63,2.08,1.63h1.7v.36h-4.16Z"></path><path class="cls-5" d="M86.17,78.63v-.4l4.3,1.63c.87,.33,1.18,.71,1.18,1.25,0,.29-.06,.49-.18,.74l-.35-.12c.11-.2,.15-.36,.15-.64,0-.39-.25-.65-.98-.93l-4.13,1.8v-.42l3.72-1.56-3.72-1.35Z"></path><path class="cls-5" d="M86.17,75.41v-.42l3.71-1.42-3.71-1.43v-.4l4.19,1.68v.31l-4.19,1.68Z"></path><path class="cls-5" d="M88.26,71h-.02c-1.21,0-2.17-.76-2.17-1.78s.95-1.72,2.18-1.72c.07,0,.1,0,.16,0v3.11c1.04-.07,1.64-.74,1.64-1.47,0-.58-.29-.98-.65-1.29l.24-.25c.46,.38,.78,.83,.78,1.55,0,.99-.87,1.84-2.17,1.84Zm-.2-3.11c-.84,.05-1.61,.49-1.61,1.35,0,.74,.69,1.32,1.61,1.38v-2.73Z"></path><path class="cls-5" d="M86.17,66.45v-.36h1.18c-.74-.29-1.28-.92-1.25-1.66h.44v.04c0,.87,.73,1.63,2.08,1.63h1.7v.36h-4.16Z"></path><path class="cls-5" d="M86.17,60.57v-.4l4.3,1.63c.87,.33,1.18,.71,1.18,1.25,0,.29-.06,.49-.18,.74l-.35-.12c.11-.2,.15-.36,.15-.64,0-.39-.25-.65-.98-.93l-4.13,1.8v-.42l3.72-1.56-3.72-1.35Z"></path><path class="cls-5" d="M99.58,93.41l-.32-.21c.35-.41,.55-.87,.55-1.35,0-.51-.31-.9-.79-.9h-.02c-.49,0-.67,.47-.83,.99-.2,.61-.4,1.29-1.14,1.29h-.02c-.67,0-1.15-.51-1.15-1.24,0-.45,.18-.96,.46-1.33l.33,.19c-.25,.35-.42,.76-.42,1.15,0,.51,.31,.85,.73,.85h.02c.46,0,.64-.51,.81-1.04,.19-.6,.43-1.24,1.17-1.24h.02c.74,0,1.21,.57,1.21,1.29,0,.54-.24,1.14-.6,1.54Z"></path><path class="cls-5" d="M94.16,89.38v-.36h5.95v.36h-5.95Z"></path><path class="cls-5" d="M94.32,87.59v-.45h.55v.45h-.55Zm1.63-.04v-.36h4.16v.36h-4.16Z"></path><path class="cls-5" d="M100.79,85.84l-.33-.21c.38-.45,.59-.96,.59-1.52,0-.86-.55-1.47-1.61-1.47h-.6c.51,.32,.96,.82,.96,1.57,0,.9-.77,1.8-1.96,1.8h-.02c-1.2,0-1.97-.9-1.97-1.8,0-.75,.44-1.26,.93-1.57h-.83v-.36h3.51c.6,0,1.08,.18,1.41,.48,.36,.32,.55,.81,.55,1.36,0,.63-.21,1.21-.64,1.72Zm-2.96-3.22h-.02c-.96,0-1.58,.77-1.58,1.55s.6,1.45,1.57,1.45h.02c.94,0,1.59-.68,1.59-1.45s-.64-1.55-1.58-1.55Z"></path><path class="cls-5" d="M94.16,80.91v-.36h2.57c-.49-.25-.87-.67-.87-1.35,0-.95,.72-1.5,1.71-1.5h2.54v.36h-2.47c-.86,0-1.42,.43-1.42,1.19s.62,1.3,1.48,1.3h2.4v.36h-5.95Z"></path><path class="cls-5" d="M99.04,76.2h-2.72v.54h-.37v-.54h-1.33v-.36h1.33v-1.32h.37v1.32h2.68c.59,0,.81-.32,.81-.75,0-.18-.04-.34-.15-.55h.38c.1,.19,.15,.38,.15,.61,0,.58-.35,1.05-1.14,1.05Z"></path><path class="cls-5" d="M94.16,73.4v-.36h5.95v.36h-5.95Z"></path><path class="cls-5" d="M95.95,68.69v-.4l4.3,1.63c.87,.33,1.18,.71,1.18,1.25,0,.29-.06,.49-.18,.74l-.35-.12c.11-.2,.15-.36,.15-.64,0-.39-.25-.65-.98-.93l-4.13,1.8v-.42l3.72-1.56-3.72-1.35Z"></path><path class="cls-5" d="M94.32,65.08v-.45h.55v.45h-.55Zm1.63-.04v-.36h4.16v.36h-4.16Z"></path><path class="cls-5" d="M95.95,63.25v-.36h.77c-.49-.25-.87-.67-.87-1.35,0-.95,.72-1.5,1.71-1.5h2.54v.36h-2.47c-.86,0-1.42,.43-1.42,1.19s.62,1.3,1.48,1.3h2.4v.36h-4.16Z"></path><path class="cls-5" d="M98.04,59h-.02c-1.17,0-2.18-.84-2.18-1.91,0-.71,.36-1.15,.77-1.5l.29,.26c-.37,.32-.68,.69-.68,1.25,0,.85,.79,1.52,1.78,1.52h.02c1,0,1.8-.68,1.8-1.54,0-.53-.3-.94-.69-1.26l.24-.25c.48,.38,.82,.84,.82,1.53,0,1.08-.99,1.91-2.16,1.91Z"></path><path class="cls-5" d="M94.16,54.49v-.36h5.95v.36h-5.95Z"></path><path class="cls-5" d="M98.49,52.78h-2.54v-.36h2.47c.86,0,1.42-.43,1.42-1.19s-.62-1.3-1.48-1.3h-2.4v-.36h4.16v.36h-.77c.49,.25,.87,.67,.87,1.35,0,.95-.72,1.5-1.71,1.5Z"></path><path class="cls-5" d="M98.04,48.44h-.02c-1.35,0-2.18-.92-2.18-1.82,0-.75,.47-1.24,.99-1.54h-2.69v-.36h5.95v.36h-.93c.55,.32,1.03,.8,1.03,1.54,0,.9-.81,1.82-2.16,1.82Zm0-3.39h-.02c-1.07,0-1.78,.75-1.78,1.53s.66,1.47,1.78,1.47h.02c1.09,0,1.79-.68,1.79-1.47s-.73-1.53-1.78-1.53Z"></path><path class="cls-5" d="M98.03,43.6h-.02c-1.21,0-2.17-.76-2.17-1.78s.95-1.72,2.18-1.72c.07,0,.1,0,.16,0v3.11c1.04-.07,1.64-.74,1.64-1.47,0-.58-.29-.98-.65-1.29l.24-.25c.46,.38,.78,.83,.78,1.55,0,.99-.87,1.84-2.17,1.84Zm-.2-3.11c-.84,.05-1.61,.49-1.61,1.35,0,.74,.69,1.32,1.61,1.38v-2.73Z"></path><path class="cls-5" d="M98.04,39.29h-.02c-1.35,0-2.18-.92-2.18-1.82,0-.75,.47-1.24,.99-1.54h-2.69v-.36h5.95v.36h-.93c.55,.32,1.03,.8,1.03,1.54,0,.9-.81,1.82-2.16,1.82Zm0-3.39h-.02c-1.07,0-1.78,.75-1.78,1.53s.66,1.47,1.78,1.47h.02c1.09,0,1.79-.68,1.79-1.47s-.73-1.53-1.78-1.53Z"></path></g><g><path class="cls-5" d="M123.01,68.64h.65l2.19,4.67,2.22-4.67h.62l-2.6,5.27h-.48l-2.6-5.27Z"></path><path class="cls-5" d="M129.81,71.27v-.02c0-1.52,1.18-2.73,2.75-2.73s2.66,1.19,2.66,2.74c0,.09,0,.12-.01,.21h-4.81c.1,1.3,1.14,2.06,2.27,2.06,.9,0,1.51-.36,1.99-.82l.39,.31c-.59,.57-1.28,.98-2.4,.98-1.52,0-2.84-1.1-2.84-2.73Zm4.81-.26c-.08-1.06-.75-2.03-2.08-2.03-1.15,0-2.04,.87-2.14,2.03h4.22Z"></path><path class="cls-5" d="M136.84,68.64h.56v1.49c.45-.93,1.42-1.61,2.57-1.57v.55h-.06c-1.34,0-2.51,.91-2.51,2.61v2.14h-.56v-5.23Z"></path><path class="cls-5" d="M145.92,68.64h.61l-2.51,5.41c-.51,1.1-1.1,1.49-1.93,1.49-.44,0-.76-.07-1.15-.23l.19-.44c.31,.13,.56,.19,.99,.19,.6,0,1-.32,1.43-1.23l-2.79-5.2h.65l2.41,4.68,2.09-4.68Z"></path><path class="cls-5" d="M150.98,73.21l.33-.4c.64,.44,1.34,.69,2.08,.69,.78,0,1.4-.39,1.4-.99v-.02c0-.62-.73-.84-1.53-1.05-.94-.25-1.99-.5-1.99-1.44v-.02c0-.84,.78-1.45,1.91-1.45,.69,0,1.48,.23,2.06,.57l-.3,.42c-.53-.32-1.17-.52-1.78-.52-.8,0-1.32,.39-1.32,.91v.02c0,.58,.78,.8,1.61,1.02,.93,.24,1.91,.54,1.91,1.47v.02c0,.93-.89,1.53-2,1.53-.84,0-1.76-.31-2.38-.76Z"></path><path class="cls-5" d="M157.2,66.38h.56v7.49h-.56v-7.49Z"></path><path class="cls-5" d="M159.96,66.59h.69v.69h-.69v-.69Zm.07,2.05h.56v5.23h-.56v-5.23Z"></path><path class="cls-5" d="M162.67,74.73l.33-.41c.69,.48,1.49,.74,2.34,.74,1.33,0,2.27-.69,2.27-2.03v-.76c-.5,.65-1.27,1.21-2.42,1.21-1.4,0-2.79-.96-2.79-2.46v-.02c0-1.51,1.39-2.48,2.79-2.48,1.16,0,1.94,.55,2.42,1.17v-1.05h.56v4.42c0,.76-.27,1.35-.74,1.77-.5,.45-1.25,.7-2.1,.7-.97,0-1.86-.27-2.66-.8Zm4.98-3.72v-.02c0-1.21-1.19-1.99-2.4-1.99s-2.24,.76-2.24,1.98v.02c0,1.18,1.05,2,2.24,2s2.4-.8,2.4-1.99Z"></path><path class="cls-5" d="M170.28,66.38h.56v3.23c.39-.62,1.03-1.1,2.09-1.1,1.47,0,2.32,.9,2.32,2.15v3.2h-.56v-3.11c0-1.08-.67-1.78-1.84-1.78s-2.01,.78-2.01,1.87v3.02h-.56v-7.49Z"></path><path class="cls-5" d="M177.55,72.53v-3.42h-.84v-.46h.84v-1.67h.56v1.67h2.03v.46h-2.03v3.37c0,.75,.49,1.02,1.16,1.02,.28,0,.52-.05,.85-.18v.47c-.3,.12-.58,.18-.94,.18-.9,0-1.63-.44-1.63-1.44Z"></path><path class="cls-5" d="M181.87,66.38h.56v7.49h-.56v-7.49Z"></path><path class="cls-5" d="M189.15,68.64h.61l-2.51,5.41c-.51,1.1-1.1,1.49-1.93,1.49-.44,0-.76-.07-1.15-.23l.19-.44c.31,.13,.56,.19,.99,.19,.6,0,1-.32,1.43-1.23l-2.79-5.2h.65l2.41,4.68,2.09-4.68Z"></path><path class="cls-5" d="M123.61,78.9h.69v.69h-.69v-.69Zm.07,2.05h.56v5.23h-.56v-5.23Z"></path><path class="cls-5" d="M126.43,80.95h.56v.97c.39-.62,1.03-1.1,2.09-1.1,1.47,0,2.32,.9,2.32,2.15v3.2h-.56v-3.11c0-1.08-.67-1.78-1.84-1.78s-2.01,.78-2.01,1.87v3.02h-.56v-5.23Z"></path><path class="cls-5" d="M132.99,83.59v-.02c0-1.47,1.3-2.74,2.96-2.74,1.09,0,1.77,.45,2.32,.96l-.4,.37c-.5-.46-1.07-.86-1.93-.86-1.32,0-2.34,.99-2.34,2.25v.02c0,1.26,1.06,2.27,2.39,2.27,.82,0,1.46-.38,1.94-.87l.39,.31c-.59,.6-1.3,1.04-2.36,1.04-1.67,0-2.96-1.25-2.96-2.72Z"></path><path class="cls-5" d="M139.96,78.7h.56v7.49h-.56v-7.49Z"></path><path class="cls-5" d="M142.59,84.15v-3.2h.56v3.11c0,1.08,.67,1.78,1.84,1.78s2.01-.78,2.01-1.87v-3.02h.56v5.23h-.56v-.97c-.39,.62-1.03,1.1-2.09,1.1-1.47,0-2.32-.9-2.32-2.15Z"></path><path class="cls-5" d="M149.3,83.59v-.02c0-1.7,1.42-2.74,2.82-2.74,1.16,0,1.91,.59,2.39,1.25v-3.38h.56v7.49h-.56v-1.17c-.5,.69-1.24,1.29-2.39,1.29-1.4,0-2.82-1.02-2.82-2.72Zm5.24-.01v-.02c0-1.34-1.16-2.25-2.36-2.25s-2.27,.83-2.27,2.24v.02c0,1.37,1.06,2.26,2.27,2.26s2.36-.91,2.36-2.25Z"></path><path class="cls-5" d="M156.77,83.58v-.02c0-1.52,1.18-2.73,2.75-2.73s2.66,1.19,2.66,2.74c0,.09,0,.12-.01,.21h-4.81c.1,1.3,1.14,2.06,2.27,2.06,.9,0,1.51-.36,1.99-.82l.39,.31c-.59,.57-1.28,.98-2.4,.98-1.52,0-2.84-1.1-2.84-2.73Zm4.81-.26c-.08-1.06-.75-2.03-2.08-2.03-1.15,0-2.04,.87-2.14,2.03h4.22Z"></path><path class="cls-5" d="M163.43,83.59v-.02c0-1.7,1.42-2.74,2.82-2.74,1.16,0,1.91,.59,2.39,1.25v-3.38h.56v7.49h-.56v-1.17c-.5,.69-1.24,1.29-2.39,1.29-1.4,0-2.82-1.02-2.82-2.72Zm5.24-.01v-.02c0-1.34-1.16-2.25-2.36-2.25s-2.27,.83-2.27,2.24v.02c0,1.37,1.06,2.26,2.27,2.26s2.36-.91,2.36-2.25Z"></path></g><g><path class="cls-5" d="M220.07,85.53l.33-.4c.64,.44,1.34,.69,2.08,.69,.78,0,1.4-.39,1.4-.99v-.02c0-.62-.73-.84-1.53-1.05-.94-.25-1.99-.5-1.99-1.44v-.02c0-.84,.78-1.45,1.91-1.45,.69,0,1.48,.23,2.06,.57l-.3,.42c-.53-.32-1.17-.52-1.78-.52-.8,0-1.32,.39-1.32,.91v.02c0,.58,.78,.8,1.61,1.02,.93,.24,1.91,.54,1.91,1.47v.02c0,.93-.89,1.53-2,1.53-.84,0-1.76-.31-2.38-.76Z"></path><path class="cls-5" d="M226.29,78.7h.56v7.49h-.56v-7.49Z"></path><path class="cls-5" d="M229.05,78.9h.69v.69h-.69v-.69Zm.07,2.05h.56v5.23h-.56v-5.23Z"></path><path class="cls-5" d="M231.76,87.04l.33-.41c.69,.48,1.49,.74,2.34,.74,1.33,0,2.27-.69,2.27-2.03v-.76c-.5,.65-1.27,1.21-2.42,1.21-1.4,0-2.79-.96-2.79-2.46v-.02c0-1.51,1.39-2.48,2.79-2.48,1.16,0,1.94,.55,2.42,1.17v-1.05h.56v4.42c0,.76-.27,1.35-.74,1.77-.5,.45-1.25,.7-2.1,.7-.97,0-1.86-.27-2.66-.8Zm4.98-3.72v-.02c0-1.21-1.19-1.99-2.4-1.99s-2.24,.76-2.24,1.98v.02c0,1.18,1.05,2,2.24,2s2.4-.8,2.4-1.99Z"></path><path class="cls-5" d="M239.37,78.7h.56v3.23c.39-.62,1.03-1.1,2.09-1.1,1.47,0,2.32,.9,2.32,2.15v3.2h-.56v-3.11c0-1.08-.67-1.78-1.84-1.78s-2.01,.78-2.01,1.87v3.02h-.56v-7.49Z"></path><path class="cls-5" d="M246.64,84.84v-3.42h-.84v-.46h.84v-1.67h.56v1.67h2.03v.46h-2.03v3.37c0,.75,.49,1.02,1.16,1.02,.28,0,.52-.05,.85-.18v.47c-.3,.12-.58,.18-.94,.18-.9,0-1.63-.44-1.63-1.44Z"></path><path class="cls-5" d="M250.96,78.7h.56v7.49h-.56v-7.49Z"></path><path class="cls-5" d="M258.24,80.95h.61l-2.51,5.41c-.51,1.1-1.1,1.49-1.93,1.49-.44,0-.76-.07-1.15-.23l.19-.44c.31,.13,.56,.19,.99,.19,.6,0,1-.32,1.43-1.23l-2.79-5.2h.65l2.41,4.68,2.09-4.68Z"></path><path class="cls-5" d="M263.81,78.9h.69v.69h-.69v-.69Zm.07,2.05h.56v5.23h-.56v-5.23Z"></path><path class="cls-5" d="M266.63,80.95h.56v.97c.39-.62,1.03-1.1,2.09-1.1,1.47,0,2.32,.9,2.32,2.15v3.2h-.56v-3.11c0-1.08-.67-1.78-1.84-1.78s-2.01,.78-2.01,1.87v3.02h-.56v-5.23Z"></path><path class="cls-5" d="M273.19,83.59v-.02c0-1.47,1.3-2.74,2.96-2.74,1.09,0,1.77,.45,2.32,.96l-.4,.37c-.5-.46-1.07-.86-1.93-.86-1.32,0-2.34,.99-2.34,2.25v.02c0,1.26,1.06,2.27,2.39,2.27,.82,0,1.46-.38,1.94-.87l.39,.31c-.59,.6-1.3,1.04-2.36,1.04-1.67,0-2.96-1.25-2.96-2.72Z"></path><path class="cls-5" d="M280.16,78.7h.56v7.49h-.56v-7.49Z"></path><path class="cls-5" d="M282.79,84.15v-3.2h.56v3.11c0,1.08,.67,1.78,1.84,1.78s2.01-.78,2.01-1.87v-3.02h.56v5.23h-.56v-.97c-.39,.62-1.03,1.1-2.09,1.1-1.47,0-2.32-.9-2.32-2.15Z"></path><path class="cls-5" d="M289.5,83.59v-.02c0-1.7,1.42-2.74,2.82-2.74,1.16,0,1.91,.59,2.39,1.25v-3.38h.56v7.49h-.56v-1.17c-.5,.69-1.24,1.29-2.39,1.29-1.4,0-2.82-1.02-2.82-2.72Zm5.24-.01v-.02c0-1.34-1.16-2.25-2.36-2.25s-2.27,.83-2.27,2.24v.02c0,1.37,1.06,2.26,2.27,2.26s2.36-.91,2.36-2.25Z"></path><path class="cls-5" d="M296.97,83.58v-.02c0-1.52,1.18-2.73,2.75-2.73s2.66,1.19,2.66,2.74c0,.09,0,.12-.01,.21h-4.81c.1,1.3,1.14,2.06,2.27,2.06,.9,0,1.51-.36,1.99-.82l.39,.31c-.59,.57-1.28,.98-2.4,.98-1.52,0-2.84-1.1-2.84-2.73Zm4.81-.26c-.08-1.06-.75-2.03-2.08-2.03-1.15,0-2.04,.87-2.14,2.03h4.22Z"></path><path class="cls-5" d="M303.63,83.59v-.02c0-1.7,1.42-2.74,2.82-2.74,1.16,0,1.91,.59,2.39,1.25v-3.38h.56v7.49h-.56v-1.17c-.5,.69-1.24,1.29-2.39,1.29-1.4,0-2.82-1.02-2.82-2.72Zm5.24-.01v-.02c0-1.34-1.16-2.25-2.36-2.25s-2.27,.83-2.27,2.24v.02c0,1.37,1.06,2.26,2.27,2.26s2.36-.91,2.36-2.25Z"></path></g><g><path class="cls-5" d="M366.51,78.9h.69v.69h-.69v-.69Zm.07,2.05h.56v5.23h-.56v-5.23Z"></path><path class="cls-5" d="M369.32,80.95h.56v.97c.39-.62,1.03-1.1,2.09-1.1,1.47,0,2.32,.9,2.32,2.15v3.2h-.56v-3.11c0-1.08-.67-1.78-1.84-1.78s-2.01,.78-2.01,1.87v3.02h-.56v-5.23Z"></path><path class="cls-5" d="M375.89,83.59v-.02c0-1.47,1.3-2.74,2.96-2.74,1.09,0,1.77,.45,2.32,.96l-.4,.37c-.5-.46-1.07-.86-1.93-.86-1.32,0-2.34,.99-2.34,2.25v.02c0,1.26,1.06,2.27,2.39,2.27,.82,0,1.46-.38,1.94-.87l.39,.31c-.59,.6-1.3,1.04-2.36,1.04-1.67,0-2.96-1.25-2.96-2.72Z"></path><path class="cls-5" d="M382.86,78.7h.56v7.49h-.56v-7.49Z"></path><path class="cls-5" d="M385.49,84.15v-3.2h.56v3.11c0,1.08,.67,1.78,1.84,1.78s2.01-.78,2.01-1.87v-3.02h.56v5.23h-.56v-.97c-.39,.62-1.03,1.1-2.09,1.1-1.47,0-2.32-.9-2.32-2.15Z"></path><path class="cls-5" d="M392.19,83.59v-.02c0-1.7,1.42-2.74,2.82-2.74,1.16,0,1.91,.59,2.39,1.25v-3.38h.56v7.49h-.56v-1.17c-.5,.69-1.24,1.29-2.39,1.29-1.4,0-2.82-1.02-2.82-2.72Zm5.24-.01v-.02c0-1.34-1.16-2.25-2.36-2.25s-2.27,.83-2.27,2.24v.02c0,1.37,1.06,2.26,2.27,2.26s2.36-.91,2.36-2.25Z"></path><path class="cls-5" d="M399.67,83.58v-.02c0-1.52,1.18-2.73,2.75-2.73s2.66,1.19,2.66,2.74c0,.09,0,.12-.01,.21h-4.81c.1,1.3,1.14,2.06,2.27,2.06,.9,0,1.51-.36,1.99-.82l.39,.31c-.59,.57-1.28,.98-2.4,.98-1.52,0-2.84-1.1-2.84-2.73Zm4.81-.26c-.08-1.06-.75-2.03-2.08-2.03-1.15,0-2.04,.87-2.14,2.03h4.22Z"></path><path class="cls-5" d="M406.33,83.59v-.02c0-1.7,1.42-2.74,2.82-2.74,1.16,0,1.91,.59,2.39,1.25v-3.38h.56v7.49h-.56v-1.17c-.5,.69-1.24,1.29-2.39,1.29-1.4,0-2.82-1.02-2.82-2.72Zm5.24-.01v-.02c0-1.34-1.16-2.25-2.36-2.25s-2.27,.83-2.27,2.24v.02c0,1.37,1.06,2.26,2.27,2.26s2.36-.91,2.36-2.25Z"></path></g></g></svg>