<?xml version="1.0" encoding="UTF-8"?>
<svg id="Layer_2" xmlns="http://www.w3.org/2000/svg" version="1.1" viewBox="0 0 140 42">
  <!-- Generator: Adobe Illustrator 29.5.1, SVG Export Plug-In . SVG Version: 2.1.0 Build 141)  -->
  <defs>
    <style>
      .st0 {
        fill: #fff;
      }

      .st1 {
        fill: #c2db6f;
      }
    </style>
  </defs>
  <g id="Layer_1-2">
    <g>
      <path class="st0" d="M40.3,14.5h0c0-4.7-3.1-7.7-6.9-7.7s-7,3.1-7,7.6h0c0,4.7,3.3,7.7,7,7.7s6.9-2.9,6.9-7.6M21.1,2.5h5.5v4c1.8-2.5,4.2-4.5,8.2-4.5,5.6,0,11.1,4.4,11.1,12.4h0c0,8-5.4,12.5-11.1,12.5-3.2,0-6.3-1.5-8.2-4.2v10.9h-5.5s0-31.1,0-31.1Z"/>
      <path class="st0" d="M64.2,12.8c-.4-3.5-2.5-6.3-6.1-6.3s-5.7,2.6-6.2,6.3h12.3ZM46.4,14.5h0c0-6.9,4.9-12.5,11.7-12.5s11.5,6,11.5,12.8,0,1,0,1.5h-17.6c.6,3.9,3.3,6.1,6.9,6.1s4.6-1,6.5-2.9l3.2,2.9c-2.4,2.9-6,4.6-9.8,4.5-6.9,0-12.3-5-12.3-12.4"/>
      <path class="st0" d="M70.2,2.5h5.5v3.7c1.5-2.2,3.8-4.2,7.5-4.2,5.4,0,8.5,3.6,8.5,9.1v15.2h-5.5v-13.6c0-3.7-1.9-5.8-5.1-5.8s-5.4,2.2-5.4,5.9v13.5h-5.5V2.5h0Z"/>
      <path class="st0" d="M92.3,14.6h0c0-6.9,5.4-12.5,12.2-12.6h.3c3.7-.1,7.2,1.4,9.6,4.1l-3.4,3.7c-1.7-1.8-3.4-3-6.2-3-4,0-6.9,3.4-6.9,7.6h0c0,4.3,2.9,7.7,7.2,7.7s4.5-1.2,6.2-2.9l3.3,3.3c-2.4,2.6-5.1,4.5-9.8,4.5-6.7.1-12.3-5.3-12.4-12v-.3"/>
      <path class="st0" d="M124.8,6.5c3.6,0,5.7,2.8,6.1,6.3h-12.3c.5-3.7,2.9-6.3,6.2-6.3M130.1,21.1c-1.3.9-2.9,1.3-4.5,1.3-3.5,0-6.3-2.2-6.9-6.1h17.6c0-.5,0-1,0-1.5,0-6.9-3.8-12.8-11.5-12.8s-11.7,5.6-11.7,12.4h0c0,7.5,5.3,12.5,12.3,12.5,2.8,0,5.6-.8,7.9-2.6l-3.3-3.2h0Z"/>
      <path class="st0" d="M13.1,12.3c-2.8-.9-5.4-1.6-5.4-3.4h0c0-1.5,1.2-2.4,3.3-2.4,2,.1,3.9.7,5.6,1.6l3.3-3.3c-2.6-1.7-5.6-2.6-8.8-2.7-4.8,0-8.5,2.7-8.5,7.3h0c0,4.7,3.9,6.1,7.5,7.1,2.8.9,5.3,1.5,5.3,3.3h0c0,1.7-1.4,2.7-3.7,2.7-2.5-.1-5-1-7-2.4l-3.2,3.2c2.9,2.2,6.5,3.5,10.1,3.5,5,0,8.9-2.5,8.9-7.5h0c0-4.4-3.9-6-7.4-7.1"/>
      <polygon class="st1" points="139.2 19.8 137.8 18.2 133.2 18.2 131.8 19.8 135.5 23.4 139.2 19.8"/>
      <path class="st0" d="M71.2,34.6v3.7h1.1c1,0,1.8-.7,1.9-1.6v-.2h0c0-1-.7-1.8-1.7-1.9h-1.2ZM70.2,33.7h2c1.5-.1,2.8,1,2.9,2.5v.2h0c0,1.5-1.2,2.7-2.7,2.7h-2.2v-5.4h0Z"/>
      <rect class="st0" x="79.2" y="33.7" width=".9" height="5.4"/>
      <path class="st0" d="M87.6,37l-.9-2.2-.9,2.2h1.9ZM86.3,33.7h.9l2.4,5.5h-1l-.6-1.3h-2.6l-.6,1.3h-1s2.4-5.5,2.4-5.5Z"/>
      <polygon class="st0" points="93.3 33.7 94.3 33.7 95.9 36.3 97.6 33.7 98.6 33.7 98.6 39.1 97.6 39.1 97.6 35.3 95.9 37.8 95.9 37.8 94.2 35.3 94.2 39.1 93.2 39.1 93.3 33.7"/>
      <path class="st0" d="M107.2,36.5h0c0-1-.8-1.9-1.8-1.9h0c-1,0-1.8.8-1.8,1.8h0c0,1.1.8,2,1.8,2h0c1,0,1.8-.8,1.8-1.8h0M102.5,36.5h0c0-1.6,1.3-2.8,2.9-2.8,1.5,0,2.8,1.2,2.8,2.8h0c0,1.6-1.3,2.8-2.9,2.8-1.5,0-2.8-1.2-2.8-2.8"/>
      <polygon class="st0" points="112.2 33.7 113 33.7 115.9 37.5 115.9 33.7 116.9 33.7 116.9 39.1 116.1 39.1 113.1 35.3 113.1 39.1 112.2 39.1 112.2 33.7"/>
      <path class="st0" d="M122,34.6v3.7h1.1c1,0,1.8-.7,1.9-1.6v-.2h0c0-1-.7-1.8-1.7-1.9h-1.2ZM121.1,33.7h2c1.5-.1,2.8,1,2.9,2.5v.2h0c0,1.5-1.2,2.7-2.7,2.7h-2.2v-5.4h0Z"/>
      <path class="st0" d="M129.5,38.4l.6-.7c.5.4,1.1.7,1.7.7s1-.3,1-.7h0c0-.4-.2-.6-1.2-.9-1.2-.3-1.8-.6-1.8-1.6h0c0-.9.8-1.6,1.7-1.6,0,0,0,0,.1,0,.7,0,1.4.2,2,.7l-.5.7c-.4-.3-.9-.5-1.5-.6-.6,0-.9.3-.9.6h0c0,.4.2.6,1.3.9,1.1.3,1.7.7,1.7,1.6h0c0,1-.8,1.6-1.9,1.6s-1.6-.3-2.3-.9"/>
    </g>
  </g>
</svg>