<?xml version="1.0"?>
<svg id="Layer_2" xmlns="http://www.w3.org/2000/svg" viewBox="0 0 281.9 47.13" width="281.9" height="47.13"><defs><style>.cls-1{fill:#231f20;}</style></defs><g id="TEXT"><g><path class="cls-1" d="M22.49,13.56h1.44v9.61c-2.47,2.13-5.89,3.46-9.42,3.46C6.95,26.63,.8,20.67,.8,13.3S6.99,0,14.59,0c3.57,0,6.88,1.33,9.35,3.5l-.95,1.18c-2.2-1.98-5.21-3.15-8.4-3.15C7.86,1.52,2.39,6.8,2.39,13.3s5.47,11.82,12.2,11.82c2.93,0,5.74-1.03,7.9-2.74V13.56Z"></path><path class="cls-1" d="M34.01,.04V26.6h-1.6V.04h1.6Z"></path><path class="cls-1" d="M59.58,19.04h-15.54l-3.42,7.56h-1.75L50.92,.04h1.71l12.16,26.56h-1.75l-3.46-7.56Zm-.72-1.6L51.75,1.86l-7.03,15.58h14.13Z"></path><path class="cls-1" d="M97.05,.04V1.6h-14.4V13.07h12.77v1.6h-12.77v11.93h-1.6V.04h16Z"></path><path class="cls-1" d="M114.15,26.6l-.04-3.91c-1.67,2.74-4.48,3.95-7.9,3.95-3.91,0-6.54-2.47-6.54-5.81s2.81-5.32,7.37-5.32h7.03v-1.94c-.04-3.34-1.98-5.36-5.93-5.36-2.47,0-4.56,.99-6.65,2.58l-.76-1.22c2.36-1.71,4.64-2.81,7.64-2.81,4.67,0,7.22,2.58,7.26,6.69l.08,13.15h-1.56Zm-.04-6.46v-3.23h-6.92c-3.88,0-6,1.33-6,3.88s2.01,4.41,5.24,4.41c3.69,0,6.46-1.6,7.67-5.05Z"></path><path class="cls-1" d="M130.56,8.28c-4.75,0-8.17,3.46-8.17,8.4s3.42,8.47,8.17,8.47c2.66,0,4.94-.99,6.46-2.77l.95,1.03c-1.75,2.05-4.37,3.23-7.45,3.23-5.58,0-9.69-4.1-9.69-9.92s4.1-9.95,9.69-9.95c2.85,0,5.32,1.03,7.07,2.77l-.91,1.14c-1.6-1.48-3.65-2.39-6.12-2.39Z"></path><path class="cls-1" d="M159.86,17.14h-17.29c.23,4.83,3.57,8.05,8.17,8.05,2.7,0,5.09-.99,6.69-2.74l.91,1.03c-1.82,1.98-4.52,3.15-7.67,3.15-5.58,0-9.65-4.1-9.65-9.92s4.07-9.95,9.65-9.95,9.31,4.26,9.19,10.37Zm-1.44-1.41c-.3-4.48-3.23-7.52-7.75-7.52s-7.67,3.04-8.05,7.52h15.81Z"></path><path class="cls-1" d="M174.83,25.23c-1.25,.87-2.66,1.41-4.14,1.41-2.81,.04-4.48-1.79-4.48-5.51V8.66h-2.89v-1.37h2.89V2.39h1.52V7.29h6.72v1.37h-6.72v12.27c0,2.81,1.1,4.18,3.15,4.14,1.14,0,2.32-.42,3.34-1.14l.61,1.29Z"></path><path class="cls-1" d="M177.72,6.8l6.61,18.08,6.57-18.08h1.71l6.61,18.08,6.57-18.08h1.67l-7.49,19.79h-1.63l-6.57-17.71-6.65,17.71h-1.63l-7.49-19.79h1.71Z"></path><path class="cls-1" d="M223.7,26.6l-.04-3.91c-1.67,2.74-4.48,3.95-7.9,3.95-3.91,0-6.54-2.47-6.54-5.81s2.81-5.32,7.37-5.32h7.03v-1.94c-.04-3.34-1.98-5.36-5.93-5.36-2.47,0-4.56,.99-6.65,2.58l-.76-1.22c2.36-1.71,4.63-2.81,7.64-2.81,4.67,0,7.22,2.58,7.26,6.69l.08,13.15h-1.56Zm-.04-6.46v-3.23h-6.92c-3.88,0-6,1.33-6,3.88s2.01,4.41,5.24,4.41c3.69,0,6.46-1.6,7.67-5.05Z"></path><path class="cls-1" d="M241.48,6.76v1.63c-4.37,0-7.03,2.89-7.37,7.48v10.71h-1.6V6.8h1.6v4.98c1.25-3.19,3.84-4.94,7.37-5.02Z"></path><path class="cls-1" d="M262.53,17.14h-17.29c.23,4.83,3.57,8.05,8.17,8.05,2.7,0,5.09-.99,6.69-2.74l.91,1.03c-1.82,1.98-4.52,3.15-7.67,3.15-5.58,0-9.65-4.1-9.65-9.92s4.07-9.95,9.65-9.95,9.31,4.26,9.19,10.37Zm-1.44-1.41c-.3-4.48-3.23-7.52-7.75-7.52s-7.67,3.04-8.05,7.52h15.81Z"></path><path class="cls-1" d="M271.05,2.46v.73h-3.04V11.74h-.75V3.19h-3.04v-.73h6.82Zm2.7,0l3.57,7.13,3.54-7.13h1.04V11.74h-.71l-.02-8.29-3.66,7.29h-.44l-3.63-7.29V11.74h-.73V2.46h1.04Z"></path><path class="cls-1" d="M1.17,46.5c0,.36-.27,.63-.59,.63s-.58-.27-.58-.63,.25-.59,.58-.59,.59,.25,.59,.59Z"></path></g></g></svg>