<?xml version="1.0"?>
<svg id="Layer_2" xmlns="http://www.w3.org/2000/svg" viewBox="0 0 427.3 78.13" width="427.3" height="78.13"><defs><style>.cls-1{fill:#231f20;}</style></defs><g id="TEXT"><g><path class="cls-1" d="M20.71,20.63H5.17l-3.42,7.56H0L12.04,1.63h1.71l12.16,26.56h-1.75l-3.46-7.56Zm-.72-1.6L12.88,3.46l-7.03,15.58h14.13Z"></path><path class="cls-1" d="M61.75,10.37c0,5.7-3.68,8.97-10.22,8.97h-7.75v8.85h-1.6V1.63h9.35c6.54,0,10.22,3.19,10.22,8.74Zm-1.52,.04c0-4.67-3.19-7.22-8.74-7.22h-7.71v14.59h7.71c5.55,0,8.74-2.62,8.74-7.37Z"></path><path class="cls-1" d="M83.52,18.73h-17.29c.23,4.83,3.57,8.05,8.17,8.05,2.7,0,5.09-.99,6.69-2.74l.91,1.03c-1.82,1.98-4.52,3.15-7.67,3.15-5.59,0-9.65-4.1-9.65-9.92s4.06-9.95,9.65-9.95,9.31,4.26,9.19,10.37Zm-1.44-1.41c-.3-4.48-3.23-7.52-7.75-7.52s-7.67,3.04-8.05,7.52h15.81Z"></path><path class="cls-1" d="M98.15,8.36v1.63c-4.37,0-7.03,2.89-7.37,7.48v10.71h-1.6V8.4h1.6v4.98c1.25-3.19,3.84-4.94,7.37-5.02Z"></path><path class="cls-1" d="M134.93,16.11v12.08h-1.56v-11.78c0-4.07-2.36-6.46-6.34-6.46-4.75,.11-7.52,3.38-7.52,8.55v9.69h-1.56v-11.78c0-4.07-2.39-6.46-6.34-6.46-4.75,.11-7.56,3.38-7.56,8.55v9.69h-1.56V8.4h1.56v5.21c1.29-3.38,4.07-5.17,7.98-5.24,3.99,0,6.61,2.13,7.29,5.74,1.22-3.69,4.03-5.66,8.09-5.74,4.75,0,7.52,2.93,7.52,7.75Z"></path><path class="cls-1" d="M154.92,28.19l-.04-3.91c-1.67,2.74-4.48,3.95-7.9,3.95-3.91,0-6.53-2.47-6.53-5.81s2.81-5.32,7.37-5.32h7.03v-1.94c-.04-3.34-1.98-5.36-5.93-5.36-2.47,0-4.56,.99-6.65,2.58l-.76-1.22c2.36-1.71,4.64-2.81,7.64-2.81,4.67,0,7.22,2.58,7.26,6.69l.08,13.15h-1.56Zm-.04-6.46v-3.23h-6.92c-3.88,0-6,1.33-6,3.88s2.01,4.41,5.24,4.41c3.69,0,6.46-1.6,7.67-5.05Z"></path><path class="cls-1" d="M181.1,16.11v12.08h-1.6v-11.78c0-4.07-2.39-6.46-6.46-6.46-4.56,.11-7.37,2.96-7.71,7.52v10.71h-1.6V8.4h1.6v5.05c1.33-3.27,4.14-5.02,8.09-5.09,4.83,0,7.67,2.93,7.67,7.75Z"></path><path class="cls-1" d="M205.08,18.73h-17.29c.23,4.83,3.57,8.05,8.17,8.05,2.7,0,5.09-.99,6.69-2.74l.91,1.03c-1.82,1.98-4.52,3.15-7.67,3.15-5.59,0-9.65-4.1-9.65-9.92s4.07-9.95,9.65-9.95,9.31,4.26,9.19,10.37Zm-1.44-1.41c-.3-4.48-3.23-7.52-7.75-7.52s-7.67,3.04-8.05,7.52h15.81Z"></path><path class="cls-1" d="M228.11,16.11v12.08h-1.6v-11.78c0-4.07-2.39-6.46-6.46-6.46-4.56,.11-7.37,2.96-7.71,7.52v10.71h-1.6V8.4h1.6v5.05c1.33-3.27,4.14-5.02,8.09-5.09,4.83,0,7.67,2.93,7.67,7.75Z"></path><path class="cls-1" d="M244.68,26.82c-1.25,.87-2.66,1.41-4.14,1.41-2.81,.04-4.48-1.79-4.48-5.51V10.26h-2.89v-1.37h2.89V3.99h1.52v4.9h6.72v1.37h-6.72v12.27c0,2.81,1.1,4.18,3.15,4.14,1.14,0,2.32-.42,3.34-1.14l.61,1.29Z"></path><path class="cls-1" d="M280.66,8.21c0,3.27-1.86,5.51-5.13,6.12,4.1,.49,6.46,3,6.46,6.73,0,4.52-3.53,7.14-9.54,7.14h-10.94V1.63h10.87c5.21,0,8.28,2.43,8.28,6.57Zm-1.6,.19c0-3.31-2.47-5.21-6.72-5.21h-9.23V13.68h9.23c4.26,0,6.72-1.9,6.72-5.28Zm1.33,12.46c0-3.57-2.93-5.62-8.05-5.62h-9.23v11.36h9.23c5.13,.04,8.05-2.05,8.05-5.74Z"></path><path class="cls-1" d="M290.24,0V28.19h-1.6V0h1.6Z"></path><path class="cls-1" d="M314.75,8.4V28.19h-1.56v-5.28c-1.25,3.42-4.03,5.28-7.94,5.32-4.79,0-7.56-2.89-7.56-7.75V8.4h1.56v11.78c0,4.07,2.36,6.46,6.34,6.46,4.79-.11,7.6-3.38,7.6-8.55V8.4h1.56Z"></path><path class="cls-1" d="M339.41,18.73h-17.29c.23,4.83,3.57,8.05,8.17,8.05,2.7,0,5.09-.99,6.69-2.74l.91,1.03c-1.82,1.98-4.52,3.15-7.67,3.15-5.59,0-9.65-4.1-9.65-9.92s4.07-9.95,9.65-9.95,9.31,4.26,9.19,10.37Zm-1.44-1.41c-.3-4.48-3.23-7.52-7.75-7.52s-7.67,3.04-8.05,7.52h15.81Z"></path><path class="cls-1" d="M364.79,18.31c0,5.77-3.95,9.92-9.54,9.92-3.88,0-6.92-2.01-8.4-5.21v12.54h-1.6V8.4h1.6v5.21c1.48-3.23,4.52-5.24,8.4-5.24,5.55,0,9.54,4.14,9.54,9.95Zm-1.56,0c0-4.9-3.42-8.47-8.21-8.47s-8.17,3.57-8.17,8.47,3.42,8.43,8.17,8.43,8.21-3.53,8.21-8.43Z"></path><path class="cls-1" d="M379.54,8.36v1.63c-4.37,0-7.03,2.89-7.37,7.48v10.71h-1.6V8.4h1.6v4.98c1.25-3.19,3.84-4.94,7.37-5.02Z"></path><path class="cls-1" d="M386,2.7c0,.8-.61,1.41-1.33,1.41s-1.33-.61-1.33-1.41,.61-1.37,1.33-1.37,1.33,.61,1.33,1.37Zm-.57,5.7V28.19h-1.56V8.4h1.56Z"></path><path class="cls-1" d="M410.73,16.11v12.08h-1.6v-11.78c0-4.07-2.39-6.46-6.46-6.46-4.56,.11-7.37,2.96-7.71,7.52v10.71h-1.6V8.4h1.6v5.05c1.33-3.27,4.14-5.02,8.09-5.09,4.83,0,7.67,2.93,7.67,7.75Z"></path><path class="cls-1" d="M427.3,26.82c-1.25,.87-2.66,1.41-4.14,1.41-2.81,.04-4.48-1.79-4.48-5.51V10.26h-2.89v-1.37h2.89V3.99h1.52v4.9h6.72v1.37h-6.72v12.27c0,2.81,1.1,4.18,3.15,4.14,1.14,0,2.32-.42,3.34-1.14l.61,1.29Z"></path><path class="cls-1" d="M77.9,68.1c0,5.85-4.1,9.95-9.76,9.95s-9.76-4.1-9.76-9.95,4.14-9.92,9.76-9.92,9.76,4.1,9.76,9.92Zm-17.97,0c0,5.02,3.46,8.47,8.21,8.47s8.21-3.46,8.21-8.47-3.42-8.4-8.21-8.4-8.21,3.46-8.21,8.4Z"></path><path class="cls-1" d="M85.61,56.02v2.7h6.12v1.37h-6.12v17.93h-1.56v-17.93h-2.51v-1.37h2.51v-2.58c0-3.84,2.7-6.38,5.85-6.35,1.44,0,2.93,.53,4.03,1.41l-.72,1.29c-.95-.72-2.13-1.18-3.27-1.18-2.43-.04-4.33,1.9-4.33,4.71Z"></path><path class="cls-1" d="M115.21,68.29v9.73h-1.56v-9.65l-10.64-16.91h1.71l9.69,14.93,9.58-14.93h1.71l-10.49,16.83Z"></path><path class="cls-1" d="M145.72,68.1c0,5.85-4.1,9.95-9.76,9.95s-9.76-4.1-9.76-9.95,4.14-9.92,9.76-9.92,9.76,4.1,9.76,9.92Zm-17.97,0c0,5.02,3.46,8.47,8.21,8.47s8.21-3.46,8.21-8.47-3.42-8.4-8.21-8.4-8.21,3.46-8.21,8.4Z"></path><path class="cls-1" d="M167.92,58.22v19.79h-1.56v-5.28c-1.25,3.42-4.03,5.28-7.94,5.32-4.79,0-7.56-2.89-7.56-7.75v-12.08h1.56v11.78c0,4.06,2.36,6.46,6.34,6.46,4.79-.11,7.6-3.38,7.6-8.55v-9.69h1.56Z"></path><path class="cls-1" d="M184.83,58.18v1.63c-4.37,0-7.03,2.89-7.37,7.48v10.71h-1.6v-19.79h1.6v4.98c1.25-3.19,3.84-4.94,7.37-5.02Z"></path><path class="cls-1" d="M225.37,64.76c0,7.37-6.08,13.26-13.68,13.26h-10.52v-26.56h10.56c7.56,0,13.64,5.85,13.64,13.3Zm-1.63,0c0-6.53-5.36-11.74-12.04-11.74h-8.93v23.44h8.97c6.65,0,12.01-5.21,12.01-11.7Z"></path><path class="cls-1" d="M233.2,52.52c0,.8-.61,1.41-1.33,1.41s-1.33-.61-1.33-1.41,.61-1.37,1.33-1.37,1.33,.61,1.33,1.37Zm-.57,5.7v19.79h-1.56v-19.79h1.56Z"></path><path class="cls-1" d="M253.3,78.02l-.04-3.91c-1.67,2.74-4.48,3.95-7.9,3.95-3.91,0-6.53-2.47-6.53-5.81s2.81-5.32,7.37-5.32h7.03v-1.94c-.04-3.34-1.98-5.36-5.93-5.36-2.47,0-4.56,.99-6.65,2.58l-.76-1.22c2.36-1.71,4.63-2.81,7.64-2.81,4.67,0,7.22,2.58,7.26,6.69l.08,13.15h-1.56Zm-.04-6.46v-3.23h-6.92c-3.88,0-6,1.33-6,3.88s2.01,4.41,5.24,4.41c3.69,0,6.46-1.6,7.67-5.05Z"></path><path class="cls-1" d="M294.57,65.93v12.08h-1.56v-11.78c0-4.07-2.36-6.46-6.34-6.46-4.75,.11-7.52,3.38-7.52,8.55v9.69h-1.56v-11.78c0-4.07-2.39-6.46-6.34-6.46-4.75,.11-7.56,3.38-7.56,8.55v9.69h-1.56v-19.79h1.56v5.21c1.29-3.38,4.07-5.17,7.98-5.24,3.99,0,6.61,2.13,7.29,5.74,1.22-3.69,4.03-5.66,8.09-5.74,4.75,0,7.52,2.93,7.52,7.75Z"></path><path class="cls-1" d="M319.23,68.1c0,5.85-4.1,9.95-9.76,9.95s-9.76-4.1-9.76-9.95,4.14-9.92,9.76-9.92,9.76,4.1,9.76,9.92Zm-17.97,0c0,5.02,3.46,8.47,8.21,8.47s8.21-3.46,8.21-8.47-3.42-8.4-8.21-8.4-8.21,3.46-8.21,8.4Z"></path><path class="cls-1" d="M342.37,65.93v12.08h-1.6v-11.78c0-4.07-2.39-6.46-6.46-6.46-4.56,.11-7.37,2.96-7.71,7.52v10.71h-1.6v-19.79h1.6v5.05c1.33-3.27,4.14-5.02,8.09-5.09,4.83,0,7.67,2.93,7.67,7.75Z"></path><path class="cls-1" d="M367.19,49.82v28.19h-1.6v-5.17c-1.48,3.27-4.56,5.28-8.43,5.28-5.62,0-9.65-4.18-9.65-9.99s4.03-10.03,9.61-10.03c3.91,0,6.99,2.01,8.47,5.28v-13.56h1.6Zm-1.6,18.31c0-4.94-3.46-8.51-8.25-8.51s-8.24,3.61-8.28,8.51c.04,4.94,3.46,8.51,8.28,8.51s8.25-3.57,8.25-8.51Z"></path></g></g></svg>