<?xml version="1.0"?>
<svg id="Layer_2" xmlns="http://www.w3.org/2000/svg" viewBox="0 0 52 80" width="52" height="80"><defs><style>.cls-1,.cls-2{fill:none;}.cls-3{fill:#231f20;}.cls-2{stroke:#231f20;stroke-miterlimit:10;stroke-width:.27px;}</style></defs><g id="Layer_1-2"><g><rect class="cls-1" width="52" height="80"></rect><g><path class="cls-3" d="M20.18,70.84c0,.51-.35,.88-.83,.88s-.82-.37-.82-.88,.35-.86,.82-.86,.83,.35,.83,.86Z"></path><path class="cls-3" d="M27.42,68.99c0,1.59-1.29,2.7-3.34,2.7-1.15,0-2.35-.37-3.14-.95l.66-1.32c.68,.6,1.51,.93,2.35,.93,1.2,0,1.88-.52,1.88-1.34s-.7-1.28-1.89-1.28h-1.29v-.93l2.35-2.23h-3.63v-1.4h5.62v1l-2.61,2.47,.48,.05c1.52,.16,2.55,.97,2.55,2.29Z"></path><path class="cls-3" d="M34.87,68.99c0,1.59-1.29,2.7-3.34,2.7-1.15,0-2.35-.37-3.14-.95l.66-1.32c.68,.6,1.51,.93,2.35,.93,1.19,0,1.88-.52,1.88-1.34s-.7-1.28-1.9-1.28h-1.29v-.93l2.35-2.23h-3.63v-1.4h5.62v1l-2.61,2.47,.48,.05c1.52,.16,2.55,.97,2.55,2.29Z"></path></g><g><circle class="cls-2" cx="28.44" cy="42.28" r="9.47" transform="translate(-22.46 39.82) rotate(-53.3)"></circle><rect class="cls-2" x="23.24" y="37.08" width="10.4" height="10.4"></rect><polygon class="cls-2" points="35.6 42.14 28.33 49.41 20.97 42.05 28.41 34.86 35.6 42.14"></polygon><polygon class="cls-2" points="24.77 33.56 28.5 34.95 32.23 33.73 33.64 37.08 36.9 38.41 35.6 42.05 37.25 45.52 33.64 47.48 32.23 50.8 28.33 49.41 24.86 50.89 23.24 47.48 19.92 46.04 20.97 42.05 20.01 38.15 23.24 37.08 24.77 33.56"></polygon><line class="cls-2" x1="28.44" y1="32.81" x2="28.44" y2="34.7"></line><line class="cls-2" x1="20.97" y1="42.05" x2="18.97" y2="42.05"></line><line class="cls-1" x1="37.92" y1="42.28" x2="35.68" y2="42.28"></line><line class="cls-1" x1="28.33" y1="49.41" x2="28.33" y2="51.76"></line><line class="cls-2" x1="21.74" y1="35.73" x2="23.24" y2="37.08"></line><line class="cls-2" x1="35.26" y1="35.64" x2="33.64" y2="37.08"></line><line class="cls-2" x1="33.64" y1="47.48" x2="35.17" y2="49.16"></line><line class="cls-2" x1="23.24" y1="47.48" x2="21.74" y2="48.73"></line></g></g></g></svg>