<?xml version="1.0" encoding="UTF-8"?>
<svg id="Layer_2" data-name="Layer 2" xmlns="http://www.w3.org/2000/svg" width="90.406" height="90.406" viewBox="0 0 90.406 90.406">
  <g id="Layer_1-2" data-name="Layer 1">
    <g>
      <path d="M45.203,0C20.238,0,0,20.238,0,45.203s20.238,45.203,45.203,45.203,45.203-20.238,45.203-45.203S70.168,0,45.203,0ZM45.203,83.677c-21.248,0-38.474-17.225-38.474-38.474S23.955,6.729,45.203,6.729s38.474,17.225,38.474,38.474-17.225,38.474-38.474,38.474Z" fill="#231f20"/>
      <path d="M63.861,42.843l-22.635-17.248c-1.953-1.488-4.765-.095-4.765,2.36v34.496c0,2.455,2.812,3.848,4.765,2.36l22.635-17.248c1.558-1.187,1.558-3.532,0-4.72Z" fill="#231f20"/>
    </g>
  </g>
</svg>