<?xml version="1.0"?>
<svg id="Layer_2" xmlns="http://www.w3.org/2000/svg" viewBox="0 0 63 80" width="63" height="80"><defs><style>.cls-1,.cls-2{fill:none;}.cls-3{fill:#231f20;}.cls-2{stroke:#231f20;stroke-miterlimit:10;stroke-width:.49px;}</style></defs><g id="Layer_1-2"><g><rect class="cls-1" width="63" height="80"></rect><g><path class="cls-3" d="M22.8,65.49c0-.63-.51-.99-1.35-.99-.75,0-1.63,.41-2.37,1.06l-.65-1.24c.98-.77,2.1-1.23,3.25-1.23,1.67,0,2.81,.84,2.81,2.16,0,.87-.66,1.82-1.61,2.79l-2.17,2.16h4.15v1.42h-6.26v-1.17l3.19-3.28c.6-.59,1.01-1.23,1.01-1.68Z"></path><path class="cls-3" d="M27.63,70.84c0,.51-.35,.88-.83,.88s-.82-.37-.82-.88,.35-.86,.82-.86,.83,.35,.83,.86Z"></path><path class="cls-3" d="M35.1,67.38c0,2.75-1.15,4.28-3.21,4.28s-3.22-1.53-3.22-4.28,1.15-4.27,3.22-4.27,3.21,1.52,3.21,4.27Zm-4.84,0c0,2.09,.53,3.04,1.63,3.04s1.62-.95,1.62-3.04-.53-3.03-1.62-3.03-1.63,.94-1.63,3.03Z"></path><path class="cls-3" d="M42.55,67.38c0,2.75-1.15,4.28-3.21,4.28s-3.22-1.53-3.22-4.28,1.15-4.27,3.22-4.27,3.21,1.52,3.21,4.27Zm-4.84,0c0,2.09,.53,3.04,1.63,3.04s1.62-.95,1.62-3.04-.53-3.03-1.62-3.03-1.63,.94-1.63,3.03Z"></path></g><g><circle class="cls-2" cx="31.47" cy="33.62" r="17.49"></circle><rect class="cls-2" x="21.87" y="24.02" width="19.2" height="19.2"></rect><polygon class="cls-2" points="44.7 33.35 31.26 46.77 17.68 33.19 31.42 19.91 44.7 33.35"></polygon><polygon class="cls-2" points="24.7 17.51 31.58 20.07 38.46 17.83 41.07 24.02 47.1 26.47 44.7 33.19 47.74 39.59 41.07 43.22 38.46 49.35 31.26 46.77 24.86 49.51 21.87 43.22 15.74 40.55 17.68 33.19 15.9 25.99 21.87 24.02 24.7 17.51"></polygon><line class="cls-2" x1="31.47" y1="16.12" x2="31.47" y2="19.61"></line><line class="cls-2" x1="17.68" y1="33.19" x2="13.98" y2="33.19"></line><line class="cls-2" x1="19.1" y1="21.51" x2="21.87" y2="24.02"></line><line class="cls-2" x1="44.06" y1="21.35" x2="41.07" y2="24.02"></line><line class="cls-2" x1="41.07" y1="43.22" x2="43.9" y2="46.31"></line><line class="cls-2" x1="21.87" y1="43.22" x2="19.1" y2="45.51"></line></g></g></g></svg>