<?xml version="1.0"?>
<svg xmlns="http://www.w3.org/2000/svg" xmlns:xlink="http://www.w3.org/1999/xlink" viewBox="0 0 788 100" width="788" height="100"><defs><style>.cls-1,.cls-2{fill:none;}.cls-2{stroke:#4d4d4f;stroke-miterlimit:3.86;stroke-width:.49px;}.cls-3{fill:#4d4d4f;}.cls-4{fill:url(#linear-gradient);mix-blend-mode:multiply;opacity:.2;}.cls-5{isolation:isolate;}</style><linearGradient id="linear-gradient" x1="180.1" y1="28.8" x2="724.04" y2="28.8" gradientTransform="translate(1.37 .23) rotate(.09) scale(1.01 1) skewX(.09)" gradientUnits="userSpaceOnUse"><stop offset="0" stop-color="#fff"></stop><stop offset="1" stop-color="#e0e278"></stop><stop offset="1" stop-color="#000"></stop></linearGradient></defs><g class="cls-5"><g id="Layer_1"><g><rect class="cls-1" y="1.82" width="788" height="56"></rect><g><polygon class="cls-4" points="732.75 59.55 183.3 58.64 183.3 0 732.75 .91 732.75 59.55"></polygon><g><path class="cls-3" d="M200,12.36h3.19c3.01,0,5.09,2.06,5.09,4.76v.03c0,2.69-2.08,4.79-5.09,4.79h-3.19V12.36Zm.71,.66v8.26h2.47c2.67,0,4.35-1.82,4.35-4.1v-.03c0-2.27-1.68-4.13-4.35-4.13h-2.47Z"></path><path class="cls-3" d="M218.21,12.36h6.81v.66h-6.1v3.76h5.48v.66h-5.48v3.84h6.17v.66h-6.88V12.36Z"></path><path class="cls-3" d="M234.89,12.36h6.74v.66h-6.03v3.92h5.41v.66h-5.41v4.33h-.71V12.36Z"></path><path class="cls-3" d="M274.75,17.17v-.03c0-2.58,1.87-4.95,4.73-4.95,1.56,0,2.54,.46,3.5,1.26l-.46,.53c-.75-.66-1.63-1.15-3.08-1.15-2.32,0-3.95,1.97-3.95,4.28v.03c0,2.47,1.54,4.32,4.1,4.32,1.22,0,2.35-.51,3.05-1.09v-2.75h-3.2v-.66h3.88v3.69c-.86,.77-2.2,1.44-3.76,1.44-3.02,0-4.81-2.23-4.81-4.92Z"></path><path class="cls-3" d="M293.42,12.36h.71v4.43h6.12v-4.43h.71v9.57h-.71v-4.48h-6.12v4.48h-.71V12.36Z"></path><path class="cls-3" d="M311.42,12.36h.71v9.57h-.71V12.36Z"></path><path class="cls-3" d="M321.91,20.27l.59-.37c.59,1,1.23,1.52,2.35,1.52s2.08-.89,2.08-2.56v-6.51h.71v6.45c0,1.11-.34,1.96-.88,2.49s-1.19,.77-1.96,.77c-1.42,0-2.31-.74-2.9-1.79Z"></path><path class="cls-3" d="M366.08,12.36h.71v6.29l6.1-6.29h.97l-4.18,4.22,4.36,5.35h-.93l-3.94-4.84-2.38,2.41v2.43h-.71V12.36Z"></path><path class="cls-3" d="M383.44,12.36h.71v8.91h5.62v.66h-6.33V12.36Z"></path><path class="cls-3" d="M399.42,12.36h.67l3.84,5.66,3.84-5.66h.67v9.57h-.71V13.61l-3.79,5.51h-.05l-3.79-5.51v8.31h-.68V12.36Z"></path><path class="cls-3" d="M439.28,12.36h.67l6.6,8.33V12.36h.68v9.57h-.53l-6.74-8.5v8.5h-.68V12.36Z"></path><path class="cls-3" d="M456.63,17.17v-.03c0-2.61,1.93-4.95,4.83-4.95s4.8,2.31,4.8,4.92v.03c0,2.61-1.93,4.95-4.83,4.95s-4.8-2.31-4.8-4.92Zm8.89,0v-.03c0-2.37-1.72-4.31-4.09-4.31s-4.06,1.91-4.06,4.28v.03c0,2.37,1.72,4.31,4.09,4.31s4.06-1.91,4.06-4.28Z"></path><path class="cls-3" d="M475.65,12.36h3.47c2.11,0,3.55,1.08,3.55,2.93v.03c0,2.01-1.74,3.05-3.73,3.05h-2.58v3.57h-.71V12.36Zm3.34,5.35c1.78,0,2.98-.93,2.98-2.35v-.03c0-1.52-1.18-2.31-2.9-2.31h-2.71v4.69h2.62Z"></path><path class="cls-3" d="M500.54,22.21l-1.35-1.22c-.81,.68-1.86,1.09-3.08,1.09-2.9,0-4.8-2.31-4.8-4.92v-.03c0-2.61,1.93-4.95,4.83-4.95s4.8,2.31,4.8,4.92v.03c0,1.27-.45,2.47-1.26,3.38l1.37,1.15-.51,.55Zm-1.86-1.67l-1.86-1.59,.51-.56,1.83,1.67c.66-.75,1.04-1.78,1.04-2.9v-.03c0-2.37-1.72-4.31-4.09-4.31s-4.06,1.91-4.06,4.28v.03c0,2.37,1.72,4.31,4.09,4.31,.98,0,1.86-.33,2.54-.9Z"></path><path class="cls-3" d="M510.33,12.36h4.02c1.18,0,2.12,.37,2.69,.94,.45,.45,.72,1.09,.72,1.78v.03c0,1.6-1.19,2.52-2.8,2.73l3.16,4.09h-.9l-3.05-3.96h-3.13v3.96h-.71V12.36Zm3.94,4.96c1.6,0,2.79-.81,2.79-2.19v-.03c0-1.29-1.01-2.09-2.75-2.09h-3.27v4.31h3.23Z"></path><path class="cls-3" d="M537.89,20.53l.46-.53c1.05,.97,2.02,1.42,3.43,1.42s2.42-.81,2.42-1.9v-.03c0-1.01-.53-1.6-2.71-2.04-2.3-.46-3.23-1.24-3.23-2.69v-.03c0-1.42,1.3-2.52,3.08-2.52,1.39,0,2.31,.38,3.28,1.16l-.45,.56c-.9-.78-1.8-1.08-2.86-1.08-1.41,0-2.34,.81-2.34,1.8v.03c0,1.01,.52,1.63,2.79,2.09,2.21,.45,3.14,1.24,3.14,2.64v.03c0,1.54-1.33,2.61-3.17,2.61-1.53,0-2.71-.51-3.86-1.53Z"></path><path class="cls-3" d="M557.08,13.01h-3.34v-.66h7.38v.66h-3.34v8.91h-.71V13.01Z"></path><path class="cls-3" d="M570.44,17.95v-5.59h.71v5.52c0,2.26,1.22,3.55,3.24,3.55s3.19-1.18,3.19-3.49v-5.59h.71v5.51c0,2.75-1.6,4.21-3.92,4.21s-3.92-1.45-3.92-4.13Z"></path><path class="cls-3" d="M587.39,12.36h.79l3.75,8.8,3.76-8.8h.75l-4.21,9.64h-.63l-4.21-9.64Z"></path><path class="cls-3" d="M604.96,12.36h.79l3.01,8.52,2.8-8.54h.55l2.8,8.54,3.01-8.52h.74l-3.47,9.64h-.57l-2.8-8.31-2.8,8.31h-.57l-3.47-9.64Z"></path><path class="cls-3" d="M635.69,12.36l-3.68,4.69,3.81,4.88h-.85l-3.4-4.42-3.39,4.42h-.83l3.8-4.88-3.66-4.69h.85l3.27,4.22,3.25-4.22h.83Z"></path><path class="cls-3" d="M648.35,18.14l-4.1-5.78h.89l3.58,5.14,3.6-5.14h.85l-4.1,5.77v3.8h-.71v-3.79Z"></path><path class="cls-3" d="M661.76,21.53l6.55-8.53h-6.32v-.64h7.33v.4l-6.55,8.53h6.55v.64h-7.56v-.4Z"></path><path class="cls-3" d="M682.85,12.36h6.74v.66h-6.03v3.92h5.41v.66h-5.41v4.33h-.71V12.36Z"></path><path class="cls-3" d="M691.1,19.9v-.03c0-1.45,1.24-2.27,3.05-2.27,.97,0,1.64,.12,2.31,.3v-.3c0-1.41-.86-2.13-2.3-2.13-.85,0-1.54,.23-2.19,.56l-.25-.59c.77-.36,1.52-.6,2.47-.6s1.7,.26,2.2,.77c.46,.46,.71,1.11,.71,1.97v4.35h-.66v-1.16c-.48,.67-1.34,1.33-2.67,1.33s-2.69-.74-2.69-2.19Zm5.37-.59v-.79c-.59-.15-1.37-.31-2.37-.31-1.48,0-2.3,.66-2.3,1.63v.03c0,1.01,.96,1.6,2.02,1.6,1.42,0,2.64-.88,2.64-2.15Z"></path><path class="cls-3" d="M699.59,14.95h.67v1.3c.46-.82,1.24-1.46,2.52-1.46,1.76,0,2.79,1.2,2.79,2.87v4.27h-.67v-4.14c0-1.44-.81-2.38-2.21-2.38s-2.42,1.04-2.42,2.49v4.03h-.67v-6.97Z"></path><path class="cls-3" d="M707.53,18.47v-.03c0-1.96,1.56-3.65,3.55-3.65,1.31,0,2.13,.6,2.79,1.29l-.48,.49c-.6-.62-1.29-1.15-2.32-1.15-1.59,0-2.82,1.33-2.82,2.99v.03c0,1.68,1.27,3.02,2.87,3.02,.98,0,1.75-.51,2.34-1.16l.46,.41c-.71,.81-1.56,1.38-2.84,1.38-2.01,0-3.55-1.67-3.55-3.62Z"></path><path class="cls-3" d="M721.27,14.95h.74l-3.02,7.22c-.62,1.46-1.33,1.98-2.32,1.98-.53,0-.92-.1-1.38-.3l.23-.59c.37,.18,.67,.26,1.19,.26,.72,0,1.2-.42,1.72-1.64l-3.35-6.93h.78l2.9,6.23,2.52-6.23Z"></path><g><path class="cls-3" d="M192.23,42.6v-.02c0-1.68,1.34-3.13,3.05-3.13,1.12,0,1.83,.52,2.39,1.1l-.41,.42c-.52-.53-1.1-.98-1.99-.98-1.36,0-2.41,1.14-2.41,2.57v.02c0,1.44,1.09,2.59,2.46,2.59,.84,0,1.5-.43,2-1l.4,.35c-.61,.69-1.34,1.18-2.44,1.18-1.72,0-3.05-1.43-3.05-3.11Z"></path><path class="cls-3" d="M198.92,42.6v-.02c0-1.68,1.3-3.13,3.08-3.13s3.06,1.43,3.06,3.11v.02c0,1.68-1.3,3.13-3.08,3.13s-3.06-1.43-3.06-3.11Zm5.52,0v-.02c0-1.44-1.08-2.59-2.46-2.59s-2.44,1.16-2.44,2.57v.02c0,1.44,1.08,2.59,2.46,2.59s2.44-1.16,2.44-2.57Z"></path><path class="cls-3" d="M206.91,37.01h.57v8.55h-.57v-8.55Z"></path><path class="cls-3" d="M209.33,42.6v-.02c0-1.68,1.3-3.13,3.08-3.13s3.06,1.43,3.06,3.11v.02c0,1.68-1.3,3.13-3.08,3.13s-3.06-1.43-3.06-3.11Zm5.52,0v-.02c0-1.44-1.08-2.59-2.46-2.59s-2.44,1.16-2.44,2.57v.02c0,1.44,1.08,2.59,2.46,2.59s2.44-1.16,2.44-2.57Z"></path><path class="cls-3" d="M217.13,43.24v-3.66h.57v3.55c0,1.23,.69,2.04,1.9,2.04s2.07-.89,2.07-2.13v-3.46h.57v5.98h-.57v-1.11c-.4,.7-1.07,1.25-2.16,1.25-1.51,0-2.39-1.03-2.39-2.46Z"></path><path class="cls-3" d="M224.43,39.58h.57v1.7c.47-1.07,1.46-1.84,2.65-1.79v.63h-.06c-1.38,0-2.59,1.04-2.59,2.99v2.45h-.57v-5.98Z"></path><path class="cls-3" d="M229.2,37.01h.57v8.55h-.57v-8.55Z"></path><path class="cls-3" d="M231.62,42.58v-.02c0-1.73,1.22-3.12,2.84-3.12s2.74,1.36,2.74,3.13c0,.11,0,.14-.01,.23h-4.96c.11,1.49,1.17,2.36,2.34,2.36,.93,0,1.56-.41,2.05-.94l.4,.35c-.61,.66-1.32,1.12-2.47,1.12-1.57,0-2.93-1.25-2.93-3.12Zm4.96-.29c-.08-1.21-.77-2.32-2.14-2.32-1.18,0-2.1,1-2.2,2.32h4.35Z"></path><path class="cls-3" d="M238.36,44.81l.34-.46c.66,.5,1.38,.79,2.14,.79,.81,0,1.44-.45,1.44-1.14v-.02c0-.7-.75-.96-1.58-1.2-.97-.28-2.05-.57-2.05-1.64v-.02c0-.96,.81-1.65,1.97-1.65,.71,0,1.52,.26,2.12,.66l-.3,.48c-.55-.36-1.21-.6-1.84-.6-.82,0-1.36,.45-1.36,1.04v.02c0,.67,.81,.91,1.66,1.16,.96,.27,1.97,.62,1.97,1.68v.02c0,1.07-.91,1.75-2.06,1.75-.87,0-1.82-.35-2.45-.87Z"></path><path class="cls-3" d="M244.19,44.81l.34-.46c.66,.5,1.38,.79,2.14,.79,.81,0,1.44-.45,1.44-1.14v-.02c0-.7-.75-.96-1.58-1.2-.97-.28-2.05-.57-2.05-1.64v-.02c0-.96,.81-1.65,1.97-1.65,.71,0,1.52,.26,2.12,.66l-.3,.48c-.55-.36-1.21-.6-1.84-.6-.82,0-1.36,.45-1.36,1.04v.02c0,.67,.81,.91,1.66,1.16,.96,.27,1.97,.62,1.97,1.68v.02c0,1.07-.91,1.75-2.06,1.75-.87,0-1.82-.35-2.45-.87Z"></path></g><g><path class="cls-3" d="M259.47,39.51h.57v1.11c.4-.7,1.07-1.25,2.16-1.25,1.51,0,2.39,1.03,2.39,2.46v3.66h-.57v-3.55c0-1.23-.69-2.04-1.9-2.04s-2.07,.89-2.07,2.13v3.46h-.57v-5.98Z"></path><path class="cls-3" d="M266.24,42.51v-.02c0-1.73,1.22-3.12,2.84-3.12s2.74,1.36,2.74,3.13c0,.11,0,.14-.01,.23h-4.96c.11,1.49,1.17,2.36,2.34,2.36,.93,0,1.56-.41,2.05-.94l.4,.35c-.61,.66-1.32,1.12-2.47,1.12-1.57,0-2.93-1.25-2.93-3.12Zm4.96-.29c-.08-1.21-.77-2.32-2.14-2.32-1.18,0-2.1,1-2.2,2.32h4.35Z"></path><path class="cls-3" d="M273,43.75v-.02c0-1.24,1.07-1.95,2.61-1.95,.83,0,1.41,.11,1.98,.26v-.26c0-1.21-.74-1.83-1.97-1.83-.73,0-1.32,.2-1.88,.48l-.21-.5c.66-.3,1.3-.52,2.12-.52s1.45,.22,1.89,.66c.4,.4,.61,.95,.61,1.69v3.73h-.56v-1c-.41,.57-1.15,1.14-2.29,1.14s-2.31-.63-2.31-1.88Zm4.61-.5v-.68c-.5-.13-1.17-.27-2.03-.27-1.27,0-1.97,.56-1.97,1.39v.02c0,.87,.82,1.37,1.73,1.37,1.22,0,2.26-.75,2.26-1.84Z"></path><path class="cls-3" d="M280.22,39.51h.57v1.7c.47-1.07,1.46-1.84,2.65-1.79v.63h-.06c-1.38,0-2.59,1.04-2.59,2.99v2.45h-.57v-5.98Z"></path></g><g><path class="cls-3" d="M288.26,42.52v-.02c0-1.68,1.34-3.13,3.05-3.13,1.12,0,1.83,.52,2.39,1.1l-.41,.42c-.52-.53-1.1-.98-1.99-.98-1.36,0-2.41,1.14-2.41,2.57v.02c0,1.44,1.09,2.59,2.46,2.59,.84,0,1.5-.43,2-1l.4,.35c-.61,.69-1.34,1.18-2.44,1.18-1.72,0-3.05-1.43-3.05-3.11Z"></path><path class="cls-3" d="M294.96,42.52v-.02c0-1.68,1.3-3.13,3.08-3.13s3.06,1.43,3.06,3.11v.02c0,1.68-1.3,3.13-3.08,3.13s-3.06-1.43-3.06-3.11Zm5.52,0v-.02c0-1.44-1.08-2.59-2.46-2.59s-2.44,1.16-2.44,2.57v.02c0,1.44,1.08,2.59,2.46,2.59s2.44-1.16,2.44-2.57Z"></path><path class="cls-3" d="M302.95,36.93h.57v8.55h-.57v-8.55Z"></path><path class="cls-3" d="M305.37,42.52v-.02c0-1.68,1.3-3.13,3.08-3.13s3.06,1.43,3.06,3.11v.02c0,1.68-1.3,3.13-3.08,3.13s-3.06-1.43-3.06-3.11Zm5.52,0v-.02c0-1.44-1.08-2.59-2.46-2.59s-2.44,1.16-2.44,2.57v.02c0,1.44,1.08,2.59,2.46,2.59s2.44-1.16,2.44-2.57Z"></path><path class="cls-3" d="M313.17,43.17v-3.66h.57v3.55c0,1.23,.69,2.04,1.9,2.04s2.07-.89,2.07-2.13v-3.46h.57v5.98h-.57v-1.11c-.4,.7-1.07,1.25-2.16,1.25-1.51,0-2.39-1.03-2.39-2.46Z"></path><path class="cls-3" d="M320.47,39.51h.57v1.7c.47-1.07,1.46-1.84,2.65-1.79v.63h-.06c-1.38,0-2.59,1.04-2.59,2.99v2.45h-.57v-5.98Z"></path><path class="cls-3" d="M325.24,36.93h.57v8.55h-.57v-8.55Z"></path><path class="cls-3" d="M327.66,42.51v-.02c0-1.73,1.22-3.12,2.84-3.12s2.74,1.36,2.74,3.13c0,.11,0,.14-.01,.23h-4.96c.11,1.49,1.17,2.36,2.34,2.36,.93,0,1.56-.41,2.05-.94l.4,.35c-.61,.66-1.32,1.12-2.47,1.12-1.57,0-2.93-1.25-2.93-3.12Zm4.96-.29c-.08-1.21-.77-2.32-2.14-2.32-1.18,0-2.1,1-2.2,2.32h4.35Z"></path><path class="cls-3" d="M334.4,44.74l.34-.46c.66,.5,1.38,.79,2.14,.79,.81,0,1.44-.45,1.44-1.14v-.02c0-.7-.75-.96-1.58-1.2-.97-.28-2.05-.57-2.05-1.64v-.02c0-.96,.81-1.65,1.97-1.65,.71,0,1.52,.26,2.12,.66l-.3,.48c-.55-.36-1.21-.6-1.84-.6-.82,0-1.36,.45-1.36,1.04v.02c0,.67,.81,.91,1.66,1.16,.96,.27,1.97,.62,1.97,1.68v.02c0,1.07-.91,1.75-2.06,1.75-.87,0-1.82-.35-2.45-.87Z"></path><path class="cls-3" d="M340.23,44.74l.34-.46c.66,.5,1.38,.79,2.14,.79,.81,0,1.44-.45,1.44-1.14v-.02c0-.7-.75-.96-1.58-1.2-.97-.28-2.05-.57-2.05-1.64v-.02c0-.96,.81-1.65,1.97-1.65,.71,0,1.52,.26,2.12,.66l-.3,.48c-.55-.36-1.21-.6-1.84-.6-.82,0-1.36,.45-1.36,1.04v.02c0,.67,.81,.91,1.66,1.16,.96,.27,1.97,.62,1.97,1.68v.02c0,1.07-.91,1.75-2.06,1.75-.87,0-1.82-.35-2.45-.87Z"></path></g><g><path class="cls-3" d="M356.19,40.11h-.87v-.53h.87v-.59c0-.68,.19-1.22,.53-1.56,.3-.3,.73-.47,1.25-.47,.36,0,.62,.05,.89,.14v.54c-.34-.11-.59-.15-.89-.15-.82,0-1.21,.49-1.21,1.51v.57h2.09v.53h-2.09v5.45h-.57v-5.45Z"></path><path class="cls-3" d="M359.59,43.83v-.02c0-1.24,1.07-1.95,2.61-1.95,.83,0,1.41,.11,1.98,.26v-.26c0-1.21-.74-1.83-1.97-1.83-.73,0-1.32,.2-1.88,.48l-.21-.5c.66-.3,1.3-.52,2.12-.52s1.45,.22,1.89,.66c.4,.4,.61,.95,.61,1.69v3.73h-.56v-1c-.41,.57-1.15,1.14-2.29,1.14s-2.31-.63-2.31-1.88Zm4.61-.5v-.68c-.5-.13-1.17-.27-2.03-.27-1.27,0-1.97,.56-1.97,1.39v.02c0,.87,.82,1.37,1.73,1.37,1.22,0,2.26-.75,2.26-1.84Z"></path><path class="cls-3" d="M366.82,37.24h.71v.79h-.71v-.79Zm.07,2.34h.57v5.98h-.57v-5.98Z"></path><path class="cls-3" d="M369.73,39.58h.57v1.11c.4-.7,1.07-1.25,2.16-1.25,1.51,0,2.39,1.03,2.39,2.46v3.66h-.57v-3.55c0-1.23-.69-2.04-1.9-2.04s-2.07,.89-2.07,2.13v3.46h-.57v-5.98Z"></path><path class="cls-3" d="M377.23,44.03v-3.91h-.87v-.53h.87v-1.91h.57v1.91h2.1v.53h-2.1v3.86c0,.86,.5,1.16,1.2,1.16,.29,0,.54-.06,.88-.21v.54c-.3,.14-.6,.21-.97,.21-.93,0-1.68-.5-1.68-1.64Z"></path></g><g><path class="cls-3" d="M390.15,39.58h.63l-2.59,6.19c-.53,1.25-1.14,1.7-1.99,1.7-.46,0-.79-.08-1.18-.26l.2-.5c.32,.15,.57,.22,1.02,.22,.62,0,1.03-.36,1.48-1.41l-2.87-5.94h.67l2.48,5.34,2.16-5.34Z"></path><path class="cls-3" d="M391.96,42.58v-.02c0-1.73,1.22-3.12,2.84-3.12s2.74,1.36,2.74,3.13c0,.11,0,.14-.01,.23h-4.96c.11,1.49,1.17,2.36,2.34,2.36,.93,0,1.56-.41,2.05-.94l.4,.35c-.61,.66-1.32,1.12-2.47,1.12-1.57,0-2.93-1.25-2.93-3.12Zm4.96-.29c-.08-1.21-.77-2.32-2.14-2.32-1.18,0-2.1,1-2.2,2.32h4.35Z"></path><path class="cls-3" d="M399.29,37.01h.57v8.55h-.57v-8.55Z"></path><path class="cls-3" d="M402.21,37.01h.57v8.55h-.57v-8.55Z"></path><path class="cls-3" d="M404.64,42.6v-.02c0-1.68,1.3-3.13,3.08-3.13s3.06,1.43,3.06,3.11v.02c0,1.68-1.3,3.13-3.08,3.13s-3.06-1.43-3.06-3.11Zm5.52,0v-.02c0-1.44-1.08-2.59-2.46-2.59s-2.44,1.16-2.44,2.57v.02c0,1.44,1.08,2.59,2.46,2.59s2.44-1.16,2.44-2.57Z"></path><path class="cls-3" d="M412.03,39.58h.64l1.8,5.25,1.8-5.27h.46l1.8,5.27,1.8-5.25h.62l-2.19,6.02h-.49l-1.78-5.12-1.79,5.12h-.49l-2.19-6.02Z"></path></g><g><path class="cls-3" d="M432.82,39.58h.67l2.26,5.33,2.29-5.33h.64l-2.68,6.02h-.49l-2.68-6.02Z"></path><path class="cls-3" d="M439.84,42.58v-.02c0-1.73,1.22-3.12,2.84-3.12s2.74,1.36,2.74,3.13c0,.11,0,.14-.01,.23h-4.96c.11,1.49,1.17,2.36,2.34,2.36,.93,0,1.56-.41,2.05-.94l.4,.35c-.61,.66-1.32,1.12-2.47,1.12-1.57,0-2.93-1.25-2.93-3.12Zm4.96-.29c-.08-1.21-.77-2.32-2.14-2.32-1.18,0-2.1,1-2.2,2.32h4.35Z"></path><path class="cls-3" d="M447.09,39.58h.57v1.7c.47-1.07,1.46-1.84,2.65-1.79v.63h-.06c-1.38,0-2.59,1.04-2.59,2.99v2.45h-.57v-5.98Z"></path><path class="cls-3" d="M456.45,39.58h.63l-2.59,6.19c-.53,1.25-1.14,1.7-1.99,1.7-.46,0-.79-.08-1.18-.26l.2-.5c.32,.15,.57,.22,1.02,.22,.62,0,1.03-.36,1.48-1.41l-2.87-5.94h.67l2.48,5.34,2.16-5.34Z"></path></g><g><path class="cls-3" d="M459.33,37.01h.57v8.55h-.57v-8.55Z"></path><path class="cls-3" d="M462.18,37.24h.71v.79h-.71v-.79Zm.07,2.34h.57v5.98h-.57v-5.98Z"></path><path class="cls-3" d="M464.97,46.55l.34-.47c.71,.55,1.54,.84,2.41,.84,1.37,0,2.34-.79,2.34-2.32v-.87c-.52,.74-1.31,1.38-2.5,1.38-1.44,0-2.87-1.1-2.87-2.81v-.02c0-1.72,1.43-2.84,2.87-2.84,1.2,0,2,.63,2.5,1.34v-1.2h.57v5.05c0,.87-.28,1.55-.76,2.03-.52,.52-1.29,.8-2.17,.8-1,0-1.92-.3-2.74-.91Zm5.13-4.25v-.02c0-1.38-1.23-2.27-2.47-2.27s-2.31,.87-2.31,2.26v.02c0,1.35,1.08,2.29,2.31,2.29s2.47-.91,2.47-2.27Z"></path><path class="cls-3" d="M472.82,37.01h.57v3.69c.4-.7,1.07-1.25,2.16-1.25,1.51,0,2.39,1.03,2.39,2.46v3.66h-.57v-3.55c0-1.23-.69-2.04-1.9-2.04s-2.07,.89-2.07,2.13v3.46h-.57v-8.55Z"></path><path class="cls-3" d="M480.32,44.03v-3.91h-.87v-.53h.87v-1.91h.57v1.91h2.1v.53h-2.1v3.86c0,.86,.5,1.16,1.2,1.16,.29,0,.54-.06,.88-.21v.54c-.3,.14-.6,.21-.97,.21-.93,0-1.68-.5-1.68-1.64Z"></path></g><g><path class="cls-3" d="M494.57,39.58h.63l-2.59,6.19c-.53,1.25-1.14,1.7-1.99,1.7-.46,0-.79-.08-1.18-.26l.2-.5c.32,.15,.57,.22,1.02,.22,.62,0,1.03-.36,1.48-1.41l-2.87-5.94h.67l2.48,5.34,2.16-5.34Z"></path><path class="cls-3" d="M496.37,42.58v-.02c0-1.73,1.22-3.12,2.84-3.12s2.74,1.36,2.74,3.13c0,.11,0,.14-.01,.23h-4.96c.11,1.49,1.17,2.36,2.34,2.36,.93,0,1.56-.41,2.05-.94l.4,.35c-.61,.66-1.32,1.12-2.47,1.12-1.57,0-2.93-1.25-2.93-3.12Zm4.96-.29c-.08-1.21-.77-2.32-2.14-2.32-1.18,0-2.1,1-2.2,2.32h4.35Z"></path><path class="cls-3" d="M503.71,37.01h.57v8.55h-.57v-8.55Z"></path><path class="cls-3" d="M506.62,37.01h.57v8.55h-.57v-8.55Z"></path><path class="cls-3" d="M509.05,42.6v-.02c0-1.68,1.3-3.13,3.08-3.13s3.06,1.43,3.06,3.11v.02c0,1.68-1.3,3.13-3.08,3.13s-3.06-1.43-3.06-3.11Zm5.52,0v-.02c0-1.44-1.08-2.59-2.46-2.59s-2.44,1.16-2.44,2.57v.02c0,1.44,1.08,2.59,2.46,2.59s2.44-1.16,2.44-2.57Z"></path><path class="cls-3" d="M516.44,39.58h.64l1.8,5.25,1.8-5.27h.46l1.8,5.27,1.8-5.25h.62l-2.19,6.02h-.49l-1.78-5.12-1.79,5.12h-.49l-2.19-6.02Z"></path></g><g><path class="cls-3" d="M574.1,36.84h.57v8.55h-.57v-8.55Z"></path><path class="cls-3" d="M576.95,37.08h.71v.79h-.71v-.79Zm.07,2.34h.57v5.98h-.57v-5.98Z"></path><path class="cls-3" d="M579.74,46.38l.34-.47c.71,.55,1.54,.84,2.41,.84,1.37,0,2.34-.79,2.34-2.32v-.87c-.52,.74-1.31,1.38-2.5,1.38-1.44,0-2.87-1.1-2.87-2.81v-.02c0-1.72,1.43-2.84,2.87-2.84,1.2,0,2,.63,2.5,1.34v-1.2h.57v5.05c0,.87-.28,1.55-.76,2.03-.52,.52-1.29,.8-2.17,.8-1,0-1.92-.3-2.74-.91Zm5.13-4.25v-.02c0-1.38-1.23-2.27-2.47-2.27s-2.31,.87-2.31,2.26v.02c0,1.35,1.08,2.29,2.31,2.29s2.47-.91,2.47-2.27Z"></path><path class="cls-3" d="M587.59,36.84h.57v3.69c.4-.7,1.07-1.25,2.16-1.25,1.51,0,2.39,1.03,2.39,2.46v3.66h-.57v-3.55c0-1.23-.69-2.04-1.9-2.04s-2.07,.89-2.07,2.13v3.46h-.57v-8.55Z"></path><path class="cls-3" d="M595.09,43.86v-3.91h-.87v-.53h.87v-1.91h.57v1.91h2.1v.53h-2.1v3.86c0,.86,.5,1.16,1.2,1.16,.29,0,.54-.06,.88-.21v.54c-.3,.14-.6,.21-.97,.21-.93,0-1.68-.5-1.68-1.64Z"></path></g><g><path class="cls-3" d="M608.11,39.42h.63l-2.59,6.19c-.53,1.25-1.14,1.7-1.99,1.7-.46,0-.79-.08-1.18-.26l.2-.5c.32,.15,.57,.22,1.02,.22,.62,0,1.03-.36,1.48-1.41l-2.87-5.94h.67l2.48,5.34,2.16-5.34Z"></path><path class="cls-3" d="M609.91,42.42v-.02c0-1.73,1.22-3.12,2.84-3.12s2.74,1.36,2.74,3.13c0,.11,0,.14-.01,.23h-4.96c.11,1.49,1.17,2.36,2.34,2.36,.93,0,1.56-.41,2.05-.94l.4,.35c-.61,.66-1.32,1.12-2.47,1.12-1.57,0-2.93-1.25-2.93-3.12Zm4.96-.29c-.08-1.21-.77-2.32-2.14-2.32-1.18,0-2.1,1-2.2,2.32h4.35Z"></path><path class="cls-3" d="M617.25,36.84h.57v8.55h-.57v-8.55Z"></path><path class="cls-3" d="M620.17,36.84h.57v8.55h-.57v-8.55Z"></path><path class="cls-3" d="M622.59,42.43v-.02c0-1.68,1.3-3.13,3.08-3.13s3.06,1.43,3.06,3.11v.02c0,1.68-1.3,3.13-3.08,3.13s-3.06-1.43-3.06-3.11Zm5.52,0v-.02c0-1.44-1.08-2.59-2.46-2.59s-2.44,1.16-2.44,2.57v.02c0,1.44,1.08,2.59,2.46,2.59s2.44-1.16,2.44-2.57Z"></path><path class="cls-3" d="M629.99,39.42h.64l1.8,5.25,1.8-5.27h.46l1.8,5.27,1.8-5.25h.62l-2.19,6.02h-.49l-1.78-5.12-1.79,5.12h-.49l-2.19-6.02Z"></path></g><path class="cls-2" d="M675.67,4.57V54.46M531.73,4.57V54.46M425.3,4.57V54.46M350.17,4.57V54.46M255.04,4.57V54.46m-68.11-24.92H726.85v24.99H186.94V29.54Zm0-24.9H726.85V29.54H186.94V4.65Z"></path></g></g></g></g></g></svg>