<?xml version="1.0"?>
<svg id="Layer_2" xmlns="http://www.w3.org/2000/svg" viewBox="0 0 52 80" width="52" height="80"><defs><style>.cls-1{stroke:#231f20;stroke-miterlimit:10;stroke-width:.37px;}.cls-1,.cls-2{fill:none;}.cls-3{fill:#231f20;}</style></defs><g id="Layer_1-2"><g><rect class="cls-2" width="52" height="80"></rect><g><path class="cls-3" d="M17.23,63.16v8.46h-1.63v-7.04h-1.76v-1.42h3.39Z"></path><path class="cls-3" d="M22.24,70.84c0,.51-.35,.88-.83,.88s-.82-.37-.82-.88,.35-.86,.82-.86,.83,.35,.83,.86Z"></path><path class="cls-3" d="M29.71,67.38c0,2.75-1.15,4.28-3.21,4.28s-3.22-1.53-3.22-4.28,1.15-4.27,3.22-4.27,3.21,1.52,3.21,4.27Zm-4.84,0c0,2.09,.53,3.04,1.63,3.04s1.62-.95,1.62-3.04-.53-3.03-1.62-3.03-1.63,.94-1.63,3.03Z"></path><path class="cls-3" d="M37.16,67.38c0,2.75-1.15,4.28-3.21,4.28s-3.22-1.53-3.22-4.28,1.15-4.27,3.22-4.27,3.21,1.52,3.21,4.27Zm-4.84,0c0,2.09,.53,3.04,1.63,3.04s1.62-.95,1.62-3.04-.53-3.03-1.62-3.03-1.63,.94-1.63,3.03Z"></path></g><g><circle class="cls-1" cx="25.4" cy="38.08" r="13.06"></circle><rect class="cls-1" x="18.24" y="30.92" width="14.33" height="14.33"></rect><polygon class="cls-1" points="35.28 37.89 25.25 47.9 15.11 37.77 25.36 27.85 35.28 37.89"></polygon><polygon class="cls-1" points="20.35 26.06 25.48 27.97 30.62 26.3 32.57 30.92 37.07 32.75 35.28 37.77 37.55 42.54 32.57 45.25 30.62 49.83 25.25 47.9 20.47 49.95 18.24 45.25 13.66 43.26 15.11 37.77 13.78 32.39 18.24 30.92 20.35 26.06"></polygon><line class="cls-1" x1="25.4" y1="25.02" x2="25.4" y2="27.63"></line><line class="cls-1" x1="15.11" y1="37.77" x2="12.34" y2="37.77"></line><line class="cls-1" x1="16.17" y1="29.05" x2="18.24" y2="30.92"></line><line class="cls-1" x1="34.8" y1="28.93" x2="32.57" y2="30.92"></line><line class="cls-1" x1="32.57" y1="45.25" x2="34.68" y2="47.56"></line><line class="cls-1" x1="18.24" y1="45.25" x2="16.17" y2="46.96"></line></g></g></g></svg>