<?xml version="1.0"?>
<svg id="Layer_2" xmlns="http://www.w3.org/2000/svg" viewBox="0 0 72 80" width="72" height="80"><defs><style>.cls-1,.cls-2{fill:none;}.cls-3{fill:#231f20;}.cls-2{stroke:#231f20;stroke-miterlimit:10;stroke-width:.61px;}</style></defs><g id="Layer_1-2"><g><rect class="cls-1" width="72" height="80"></rect><g><circle class="cls-2" cx="35.36" cy="30.99" r="21.68"></circle><rect class="cls-2" x="23.46" y="19.09" width="23.8" height="23.8"></rect><polygon class="cls-2" points="51.75 30.66 35.09 47.28 18.27 30.46 35.29 14 51.75 30.66"></polygon><polygon class="cls-2" points="26.96 11.02 35.49 14.2 44.02 11.42 47.26 19.09 54.73 22.13 51.75 30.46 55.52 38.39 47.26 42.88 44.02 50.49 35.09 47.28 27.16 50.68 23.46 42.88 15.86 39.58 18.27 30.46 16.06 21.53 23.46 19.09 26.96 11.02"></polygon><line class="cls-2" x1="35.36" y1="9.3" x2="35.36" y2="13.63"></line><line class="cls-2" x1="18.27" y1="30.46" x2="13.68" y2="30.46"></line><line class="cls-2" x1="20.02" y1="15.98" x2="23.46" y2="19.09"></line><line class="cls-2" x1="50.96" y1="15.78" x2="47.26" y2="19.09"></line><line class="cls-2" x1="47.26" y1="42.88" x2="50.76" y2="46.72"></line><line class="cls-2" x1="23.46" y1="42.88" x2="20.02" y2="45.73"></line></g><g><path class="cls-3" d="M28.81,65.49c0-.63-.51-.99-1.35-.99-.75,0-1.63,.41-2.37,1.06l-.65-1.24c.98-.77,2.1-1.23,3.25-1.23,1.67,0,2.81,.84,2.81,2.16,0,.87-.66,1.82-1.61,2.79l-2.17,2.16h4.15v1.42h-6.26v-1.17l3.19-3.28c.6-.59,1.01-1.23,1.01-1.68Z"></path><path class="cls-3" d="M33.64,70.84c0,.51-.35,.88-.83,.88s-.82-.37-.82-.88,.35-.86,.82-.86,.83,.35,.83,.86Z"></path><path class="cls-3" d="M37.84,66.25c1.94,0,3.19,1.07,3.19,2.56,0,1.74-1.29,2.87-3.31,2.87-1.06,0-2.3-.4-3.17-1l.65-1.3c.7,.6,1.54,.93,2.34,.93,1.1,0,1.75-.52,1.75-1.39,0-.8-.65-1.28-1.73-1.28-.52,0-1.75,.04-2.34,.1v-4.57h5.44v1.42h-3.95v1.67h1.12Z"></path><path class="cls-3" d="M48.56,67.38c0,2.75-1.15,4.28-3.21,4.28s-3.22-1.53-3.22-4.28,1.15-4.27,3.22-4.27,3.21,1.52,3.21,4.27Zm-4.84,0c0,2.09,.53,3.04,1.63,3.04s1.62-.95,1.62-3.04-.53-3.03-1.62-3.03-1.63,.94-1.63,3.03Z"></path></g></g></g></svg>